<?xml version="1.0" encoding="UTF-8"?>
<svg width="56px" height="32px" viewBox="0 0 56 32" version="1.1" xmlns="http://www.w3.org/2000/svg" xmlns:xlink="http://www.w3.org/1999/xlink">
    <!-- Generator: Sketch 54.1 (76490) - https://sketchapp.com -->
    <title>_bullet</title>
    <desc>Created with Sketch.</desc>
    <g id="03-04.-About-Us-/-News" stroke="none" stroke-width="1" fill="none" fill-rule="evenodd">
        <g id="3.About-Us" transform="translate(-166.000000, -241.000000)" fill="#004EA2">
            <g id="#1---What-is-PHITEN" transform="translate(166.000000, 232.000000)">
                <g id="_bullet" transform="translate(0.000000, 9.000000)">
                    <path d="M55.6387384,16.4941523 L42.7031957,30.8798838 C42.2673621,31.3645782 41.5700282,31.3645782 41.1341946,30.8798838 L38.2402591,27.6615126 C37.8044255,27.1768181 37.8044255,26.401307 38.2402591,25.9166125 L47.4973658,15.6217023 L38.2402591,5.32679206 C37.8044255,4.84209761 37.8044255,4.06658648 38.2402591,3.58189203 L41.1341946,0.363520842 C41.5700282,-0.121173614 42.2673621,-0.121173614 42.7031957,0.363520842 L55.6387384,14.7492523 C56.0745721,15.2339467 56.0745721,16.0094579 55.6387384,16.4941523 Z" id="chevron-right---FontAwesome"></path>
                    <path d="M37.8098549,15.7750454 L27.2060691,27.1413501 C26.8487986,27.5243119 26.277166,27.5243119 25.9198956,27.1413501 L23.54762,24.5984841 C23.1903496,24.2155224 23.1903496,23.6027836 23.54762,23.2198218 L31.1360436,15.0857143 L23.54762,6.95160676 C23.1903496,6.56864501 23.1903496,5.95590621 23.54762,5.57294446 L25.9198956,3.03007845 C26.277166,2.64711671 26.8487986,2.64711671 27.2060691,3.03007845 L37.8098549,14.3963831 C38.1671253,14.7793449 38.1671253,15.3920837 37.8098549,15.7750454 Z" id="chevron-right---FontAwesome-Copy" opacity="0.7"></path>
                    <path d="M22.3176505,16.1045344 L14.0702615,25.3659678 C13.7923845,25.6780107 13.3477814,25.6780107 13.0699044,25.3659678 L11.2248012,23.2940029 C10.9469242,22.98196 10.9469242,22.4826914 11.2248012,22.1706485 L17.1269084,15.5428571 L11.2248012,8.91506582 C10.9469242,8.60302292 10.9469242,8.10375427 11.2248012,7.79171136 L13.0699044,5.71974647 C13.3477814,5.40770356 13.7923845,5.40770356 14.0702615,5.71974647 L22.3176505,14.9811799 C22.5955275,15.2932228 22.5955275,15.7924915 22.3176505,16.1045344 Z" id="chevron-right---FontAwesome-Copy-2" opacity="0.4"></path>
                    <path d="M7.21127831,15.8630158 L1.94865868,21.8487434 C1.7713467,22.0504189 1.48764753,22.0504189 1.31033555,21.8487434 L0.132983987,20.5096184 C-0.0443279955,20.3079429 -0.0443279955,19.9852622 0.132983987,19.7835867 L3.89909048,15.5 L0.132983987,11.2164133 C-0.0443279955,11.0147378 -0.0443279955,10.6920571 0.132983987,10.4903816 L1.31033555,9.15125659 C1.48764753,8.94958114 1.7713467,8.94958114 1.94865868,9.15125659 L7.21127831,15.1369842 C7.38859029,15.3386596 7.38859029,15.6613404 7.21127831,15.8630158 Z" id="chevron-right---FontAwesome-Copy-3" opacity="0.4"></path>
                </g>
            </g>
        </g>
    </g>
</svg>