<?xml version="1.0" encoding="UTF-8"?>
<svg width="31px" height="25px" viewBox="0 0 31 25" version="1.1" xmlns="http://www.w3.org/2000/svg" xmlns:xlink="http://www.w3.org/1999/xlink">
    <!-- Generator: Sketch 59.1 (86144) - https://sketch.com -->
    <title>icon-Add-to-cart</title>
    <desc>Created with Sketch.</desc>
    <g id="01.-Home---ok" stroke="none" stroke-width="1" fill="none" fill-rule="evenodd">
        <g id="cart-plus-hover" transform="translate(-4.000000, -7.000000)" fill-rule="nonzero">
            <g id="icon-Add-to-cart" transform="translate(4.681295, 8.192267)">
                <g id="ico_shopping-cart" stroke-linecap="round" stroke-linejoin="round" transform="translate(0.000000, 2.340648)" stroke="#004EA2">
                    <circle id="Oval" stroke-width="2.20689655" fill="#004EA2" cx="7.05360126" cy="18.537931" r="1.10344828"></circle>
                    <circle id="Oval" stroke-width="2.20689655" fill="#E85C8C" cx="16.752303" cy="18.537931" r="1.10344828"></circle>
                    <path d="M0,0 L3.52680063,0 L5.88975705,12.4111448 C6.05616647,13.2919112 6.79912843,13.9206537 7.65315736,13.9034483 L16.2232829,13.9034483 C17.0773118,13.9206537 17.8202738,13.2919112 17.9866833,12.4111448 L19.3974035,4.63448276 L4.40850079,4.63448276" id="Shape" stroke-width="1.43448276" fill="#004EA2"></path>
                </g>
                <path d="M22.7136468,0 C23.8699327,0 24.9399881,0.289067119 25.9238453,0.867210031 C26.877274,1.41492437 27.6278343,2.16548461 28.1755486,3.11891327 C28.7536915,4.1027705 29.0427586,5.17282599 29.0427586,6.32911181 C29.0427586,7.48539763 28.7536915,8.55545311 28.1755486,9.53931034 C27.6278343,10.492739 26.877274,11.2432992 25.9238453,11.7910136 C24.9399881,12.3691565 23.8699327,12.6582237 22.7136468,12.6582237 C21.557361,12.6582237 20.4873055,12.3691565 19.5034483,11.7910136 C18.5500196,11.2331564 17.7994594,10.4775248 17.251745,9.52409613 C16.6736021,8.5402389 16.384535,7.47525478 16.384535,6.32911181 C16.384535,5.18296884 16.6736021,4.11798472 17.251745,3.13412748 C17.8096022,2.18069882 18.5652339,1.42506722 19.5186625,0.867210031 C20.5025197,0.289067119 21.5675039,0 22.7136468,0 Z M23.3952793,3.51097178 L23.3952793,5.86281891 L25.7471264,5.86281891 L25.7471264,7.0107443 L23.3952793,7.0107443 L23.3952793,9.36259143 L22.2473539,9.36259143 L22.2473539,7.0107443 L19.8955068,7.0107443 L19.8955068,5.86281891 L22.2473539,5.86281891 L22.2473539,3.51097178 L23.3952793,3.51097178 Z" id="control_point---material" stroke="#FFFFFF" stroke-width="1.23557959" fill="#004EA2"></path>
            </g>
        </g>
    </g>
</svg>