<?xml version="1.0" encoding="UTF-8"?>
<svg width="31px" height="25px" viewBox="0 0 31 25" version="1.1" xmlns="http://www.w3.org/2000/svg" xmlns:xlink="http://www.w3.org/1999/xlink">
    <!-- Generator: Sketch 59.1 (86144) - https://sketch.com -->
    <title>cart-plus</title>
    <desc>Created with Sketch.</desc>
    <g id="01.-Home---ok" stroke="none" stroke-width="1" fill="none" fill-rule="evenodd">
        <g id="cart-plus" transform="translate(1.000000, 1.000000)">
            <g id="ico_shopping-cart" stroke-linecap="round" stroke-linejoin="round" transform="translate(0.267502, 2.808777)" stroke="#004EA2">
                <circle id="Oval" stroke-width="2.20689655" fill="#E85C8C" fill-rule="nonzero" cx="7.05360126" cy="18.537931" r="1.10344828"></circle>
                <circle id="Oval" stroke-width="2.20689655" fill="#E85C8C" fill-rule="nonzero" cx="16.752303" cy="18.537931" r="1.10344828"></circle>
                <path d="M0,0 L3.52680063,0 L5.88975705,12.4111448 C6.05616647,13.2919112 6.79912843,13.9206537 7.65315736,13.9034483 L16.2232829,13.9034483 C17.0773118,13.9206537 17.8202738,13.2919112 17.9866833,12.4111448 L19.3974035,4.63448276 L4.40850079,4.63448276" id="Shape" stroke-width="1.43448276"></path>
            </g>
            <path d="M22.9811491,0.468129103 C24.137435,0.468129103 25.2074904,0.757196223 26.1913476,1.33533913 C27.1447764,1.88305347 27.8953366,2.63361372 28.4430509,3.58704237 C29.0211938,4.57089961 29.310261,5.64095509 29.310261,6.79724092 C29.310261,7.95352673 29.0211938,9.02358221 28.4430509,10.0074394 C27.8953366,10.9608681 27.1447764,11.7114283 26.1913476,12.2591427 C25.2074904,12.8372856 24.137435,13.1263528 22.9811491,13.1263528 C21.8248633,13.1263528 20.7548078,12.8372856 19.7709506,12.2591427 C18.817522,11.7012855 18.0669618,10.9456539 17.5192473,9.99222524 C16.9411044,9.008368 16.6520373,7.94338388 16.6520373,6.79724092 C16.6520373,5.65109794 16.9411044,4.58611382 17.5192473,3.60225658 C18.0771046,2.64882793 18.8327362,1.89319633 19.7861649,1.33533913 C20.7700221,0.757196223 21.8350062,0.468129103 22.9811491,0.468129103 Z M23.6627817,3.97910089 L23.6627817,6.33094802 L26.0146287,6.33094802 L26.0146287,7.4788734 L23.6627817,7.4788734 L23.6627817,9.83072053 L22.5148563,9.83072053 L22.5148563,7.4788734 L20.1630091,7.4788734 L20.1630091,6.33094802 L22.5148563,6.33094802 L22.5148563,3.97910089 L23.6627817,3.97910089 Z" id="control_point---material" stroke="#FFFFFF" stroke-width="1.23557959" fill="#004EA2" fill-rule="nonzero"></path>
        </g>
    </g>
</svg>