<?xml version="1.0" encoding="UTF-8"?>
<svg width="15px" height="15px" viewBox="0 0 15 15" version="1.1" xmlns="http://www.w3.org/2000/svg" xmlns:xlink="http://www.w3.org/1999/xlink">
    <!-- Generator: Sketch 54.1 (76490) - https://sketchapp.com -->
    <title>ico_shopping-cart</title>
    <desc>Created with Sketch.</desc>
    <g id="Symbols" stroke="none" stroke-width="1" fill="none" fill-rule="evenodd">
        <g id="_btt-MB---Buy-Now" transform="translate(-115.000000, -10.000000)" fill="#E85C8C" fill-rule="nonzero">
            <g id="_btt-MB---Buy-now">
                <g id="_btt-BUY-NOW-BRAND---Selected" transform="translate(41.000000, 10.000000)">
                    <g id="ico_shopping-cart" transform="translate(75.000000, 1.000000)">
                        <path d="M4.72727273,13.6 C5.39139781,13.6 5.91818182,13.048131 5.91818182,12.3809524 C5.91818182,11.7137737 5.39139781,11.1619048 4.72727273,11.1619048 C4.06314764,11.1619048 3.53636364,11.7137737 3.53636364,12.3809524 C3.53636364,13.048131 4.06314764,13.6 4.72727273,13.6 Z" id="Oval"></path>
                        <path d="M11.2272727,13.6 C11.8913978,13.6 12.4181818,13.048131 12.4181818,12.3809524 C12.4181818,11.7137737 11.8913978,11.1619048 11.2272727,11.1619048 C10.5631476,11.1619048 10.0363636,11.7137737 10.0363636,12.3809524 C10.0363636,13.048131 10.5631476,13.6 11.2272727,13.6 Z" id="Oval"></path>
                        <path d="M1.86741528,0.6 L2.36097268,3.18337135 C2.36346364,3.20029321 2.36666101,3.21698522 2.37053389,3.23341648 L3.35793202,8.40164214 C3.52297239,9.27213987 4.27109965,9.90306053 5.1411343,9.8855934 L10.8727273,9.88571429 C11.7307185,9.90306053 12.4788458,9.27213987 12.644044,8.40081289 L13.5902994,3.20269318 C13.6573502,2.83435267 13.3743936,2.4952381 13,2.4952381 L3.45120765,2.4952381 L2.95297707,-0.112594525 C2.8989403,-0.395433071 2.65159055,-0.6 2.36363636,-0.6 L0,-0.6 C-0.33137085,-0.6 -0.6,-0.33137085 -0.6,0 C-0.6,0.33137085 -0.33137085,0.6 0,0.6 L1.86741528,0.6 Z M3.68046957,3.6952381 L12.2809191,3.6952381 L11.464246,8.18159253 C11.4071923,8.48243252 11.1594641,8.69135001 10.8847707,8.68583517 L5.12909091,8.68571429 C4.8423541,8.69135001 4.59462584,8.48243252 4.53677126,8.17728235 L3.68046957,3.6952381 Z" id="Shape"></path>
                    </g>
                </g>
            </g>
        </g>
    </g>
</svg>