<?xml version="1.0" encoding="UTF-8"?>
<svg width="13px" height="16px" viewBox="0 0 13 16" version="1.1" xmlns="http://www.w3.org/2000/svg" xmlns:xlink="http://www.w3.org/1999/xlink">
    <!-- Generator: Sketch 54.1 (76490) - https://sketchapp.com -->
    <title>trash - simple-line-icons</title>
    <desc>Created with Sketch.</desc>
    <g id="02.-Product" stroke="none" stroke-width="1" fill="none" fill-rule="evenodd">
        <g id="2.3.1-Payment" transform="translate(-216.000000, -357.000000)" fill="#A6A6A6">
            <g id="#-Content" transform="translate(207.000000, 355.000000)">
                <g id="_TItle" transform="translate(9.000000, 0.000000)">
                    <g id="_delete" transform="translate(0.000000, 2.000000)">
                        <path d="M12.501199,2.49512671 C12.6362916,2.49512671 12.7531969,2.54450893 12.8519185,2.64327485 C12.95064,2.74204078 13,2.85899867 13,2.99415205 C13,3.12930542 12.95064,3.24626331 12.8519185,3.34502924 C12.7531969,3.44379517 12.6362916,3.49317739 12.501199,3.49317739 L11.8153477,3.49317739 L10.646283,15.0331384 C10.6254995,15.3034451 10.51379,15.5321628 10.3111511,15.7192982 C10.1085122,15.9064337 9.87210367,16 9.60191847,16 L3.39808153,16 C3.12789633,16 2.89148782,15.9064337 2.68884892,15.7192982 C2.48621002,15.5321628 2.36930471,15.3034451 2.3381295,15.0331384 L1.18465228,3.49317739 L0.498800959,3.49317739 C0.363708357,3.49317739 0.246803052,3.44379517 0.148081535,3.34502924 C0.049360018,3.24626331 0,3.12930542 0,2.99415205 C0,2.85899867 0.049360018,2.74204078 0.148081535,2.64327485 C0.246803052,2.54450893 0.363708357,2.49512671 0.498800959,2.49512671 L4.0059952,2.49512671 L4.0059952,1.13840156 C4.0059952,0.816112749 4.12030261,0.545810058 4.34892086,0.32748538 C4.57753911,0.109160702 4.84772026,0 5.15947242,0 L7.84052758,0 C8.15227974,0 8.42246089,0.109160702 8.65107914,0.32748538 C8.87969739,0.545810058 8.9940048,0.816112749 8.9940048,1.13840156 L8.9940048,2.49512671 L12.501199,2.49512671 Z M5.00359712,1.13840156 L5.00359712,2.49512671 L7.99640288,2.49512671 L7.99640288,1.13840156 C7.99640288,1.09681591 7.9808155,1.06042901 7.94964029,1.02923977 C7.91846507,0.998050526 7.88209453,0.98245614 7.84052758,0.98245614 L5.15947242,0.98245614 C5.11790547,0.98245614 5.08153493,0.998050526 5.05035971,1.02923977 C5.0191845,1.06042901 5.00359712,1.09681591 5.00359712,1.13840156 Z M9.66426859,14.9395712 L10.8021583,3.49317739 L2.19784173,3.49317739 L3.33573141,14.9395712 C3.33573141,14.9499676 3.3435251,14.9629629 3.35911271,14.9785575 C3.37470032,14.9941521 3.3876898,15.0019493 3.39808153,15.0019493 L9.60191847,15.0019493 C9.6123102,15.0019493 9.62529968,14.9967512 9.64088729,14.9863548 C9.6564749,14.9759584 9.66426859,14.960364 9.66426859,14.9395712 Z" id="trash---simple-line-icons"></path>
                    </g>
                </g>
            </g>
        </g>
    </g>
</svg>