<?xml version="1.0" encoding="UTF-8"?>
<svg width="128px" height="125px" viewBox="0 0 128 125" version="1.1" xmlns="http://www.w3.org/2000/svg" xmlns:xlink="http://www.w3.org/1999/xlink">
    <!-- Generator: Sketch 54.1 (76490) - https://sketchapp.com -->
    <title>cart</title>
    <desc>Created with Sketch.</desc>
    <g id="02.-Product-+-Payment" stroke="none" stroke-width="1" fill="none" fill-rule="evenodd">
        <g id="2.3.4-Payment_Success-full" transform="translate(-655.000000, -486.000000)" fill="#004EA2" fill-rule="nonzero">
            <g id="#-Info" transform="translate(437.000000, 361.000000)">
                <g id="#-Complete" transform="translate(79.000000, 44.000000)">
                    <g id="cart" transform="translate(139.000000, 81.000000)">
                        <ellipse id="Oval" cx="45.2438899" cy="109.392272" rx="15.4821284" ry="15.4379391"></ellipse>
                        <path d="M94.8468257,93.8044496 L94.8468257,93.8044496 C86.2546789,92.9613583 78.6040367,99.2230679 77.7585321,107.790691 C76.9130275,116.358314 83.1926606,123.987119 91.7848073,124.830211 C92.8029358,124.930035 93.8286972,124.930035 94.8468257,124.830211 C103.438972,123.987119 109.718606,116.358314 108.873101,107.790691 C108.142679,100.388759 102.269651,94.5327869 94.8468257,93.8044496 Z" id="Shape"></path>
                        <path d="M126.712954,35.0503513 C125.94378,33.9019321 124.640587,33.2239461 123.25578,33.2517564 L106.12022,33.2517564 L106.12022,32.9519906 C106.121394,14.8234778 91.384367,0.1264637 73.2039633,0.12529274 C55.0238532,0.12412178 40.2847706,14.8190867 40.2835963,32.9475995 C40.2835963,32.9490632 40.2835963,32.9505269 40.2835963,32.9519906 L40.2835963,33.2517564 L27.5070826,33.2517564 L23.1480367,13.4672131 C22.6639266,11.4546253 20.8645872,10.0316159 18.7889908,10.0199063 L0,10.0199063 L0,19.0128806 L15.1815046,19.0128806 L29.1605138,83.0128806 C29.5295413,85.117096 31.3776147,86.6419789 33.5195596,86.6100703 L112.132697,86.6100703 C114.208294,86.5980679 116.007339,85.1753513 116.491743,83.1627635 L127.614826,38.7974239 C127.940991,37.4762881 127.604844,36.0796253 126.712954,35.0503513 Z M73.2019083,56.7833724 C60.0026422,56.7833724 49.3023119,46.1135831 49.3023119,32.9519906 C49.3023119,19.7903981 60.0026422,9.1206089 73.2019083,9.1206089 C86.4011743,9.1206089 97.1015046,19.7903981 97.1015046,32.9519906 C97.0195963,46.0796253 86.3671193,56.7014052 73.2019083,56.7833724 Z" id="Shape"></path>
                        <path d="M69.594422,33.4016393 L61.3272661,25.0081967 L54.8638532,31.3032787 L66.2875596,42.8442623 C67.1201468,43.691452 68.2545321,44.1762295 69.4441101,44.1932084 C70.6181284,44.2505855 71.7624954,43.8158665 72.6006606,42.9941452 L91.5399633,25.1580796 L85.3771743,18.5632319 L69.594422,33.4016393 Z" id="Shape"></path>
                    </g>
                </g>
            </g>
        </g>
    </g>
</svg>