<?xml version="1.0" encoding="UTF-8"?>
<svg width="10px" height="14px" viewBox="0 0 10 14" version="1.1" xmlns="http://www.w3.org/2000/svg" xmlns:xlink="http://www.w3.org/1999/xlink">
    <!-- Generator: Sketch 54.1 (76490) - https://sketchapp.com -->
    <title>location-pin - simple-line-icons</title>
    <desc>Created with Sketch.</desc>
    <g id="Symbols" stroke="none" stroke-width="1" fill="none" fill-rule="evenodd" fill-opacity="0.6">
        <g id="#-FOOTER---VI" transform="translate(-156.000000, -233.000000)" fill="#FFFFFF">
            <g id="#-FOOTER">
                <g id="_Contact-Us" transform="translate(154.000000, 187.000000)">
                    <g id="Group" transform="translate(0.000000, 41.000000)">
                        <path d="M7.05208333,5 C7.83333724,5 8.53211497,5.14127463 9.1484375,5.42382812 C9.76476003,5.70638162 10.283418,6.09146892 10.7044271,6.57910156 C11.1254361,7.06673421 11.4466135,7.63411135 11.6679688,8.28125 C11.889324,8.92838865 12,9.61197557 12,10.3320312 C12,11.0612016 11.8632826,11.8063113 11.5898438,12.5673828 C11.3164049,13.3284543 10.9713562,14.0758427 10.5546875,14.8095703 C10.1380187,15.5432979 9.68663438,16.238278 9.20052083,16.8945312 C8.71440729,17.5507845 8.25868268,18.134112 7.83333333,18.6445312 C7.83333333,18.6536459 7.76822982,18.7151687 7.63802083,18.8291016 C7.50781185,18.9430344 7.35590365,19 7.18229167,19 L7.14322917,19 C6.96093659,19 6.80685827,18.9430344 6.68098958,18.8291016 C6.5551209,18.7151687 6.4921875,18.6536459 6.4921875,18.6445312 C6.04079635,18.0976535 5.55251999,17.5006543 5.02734375,16.8535156 C4.50216751,16.206377 4.01606126,15.5250687 3.56901042,14.8095703 C3.12195957,14.0940719 2.74869941,13.3580767 2.44921875,12.6015625 C2.14973809,11.8450483 2,11.0885454 2,10.3320312 C2,9.61197557 2.13454727,8.92838865 2.40364583,8.28125 C2.6727444,7.63411135 3.03732409,7.06673421 3.49739583,6.57910156 C3.95746758,6.09146892 4.49348652,5.70638162 5.10546875,5.42382812 C5.71745098,5.14127463 6.36631602,5 7.05208333,5 Z M7.20833333,18.0566406 C7.86805885,17.2636679 8.44531003,16.5071651 8.94010417,15.7871094 C9.43489831,15.0670537 9.84722057,14.3857454 10.1770833,13.7431641 C10.5069461,13.1005827 10.7543395,12.494469 10.9192708,11.9248047 C11.0842022,11.3551404 11.1666667,10.8242212 11.1666667,10.3320312 C11.1666667,9.77603889 11.0863723,9.23144798 10.9257812,8.69824219 C10.7651902,8.1650364 10.5156267,7.68880418 10.1770833,7.26953125 C9.83853997,6.85025832 9.41102689,6.51302211 8.89453125,6.2578125 C8.37803561,6.00260289 7.76389245,5.875 7.05208333,5.875 C6.4791638,5.875 5.93663451,5.9934884 5.42447917,6.23046875 C4.91232383,6.4674491 4.46527969,6.78873495 4.08333333,7.19433594 C3.70138698,7.59993692 3.39757057,8.07389052 3.171875,8.61621094 C2.94617943,9.15853136 2.83333333,9.73046574 2.83333333,10.3320312 C2.83333333,10.9791699 2.96354036,11.6354133 3.22395833,12.3007812 C3.4843763,12.9661492 3.81423411,13.620114 4.21354167,14.2626953 C4.61284922,14.9052767 5.05121289,15.5250621 5.52864583,16.1220703 C6.00607878,16.7190785 6.45746315,17.2773412 6.8828125,17.796875 L7.10416667,18.0566406 L7.15625,18.1113281 C7.1649306,18.1022135 7.17578118,18.093099 7.18880208,18.0839844 C7.20182298,18.0748697 7.20833333,18.0657553 7.20833333,18.0566406 Z M7.01302083,7.63867188 C7.70746875,7.63867188 8.29774062,7.89615628 8.78385417,8.41113281 C9.26996771,8.92610935 9.51302083,9.54361619 9.51302083,10.2636719 C9.51302083,10.9928422 9.26996771,11.6126277 8.78385417,12.1230469 C8.29774062,12.6334661 7.70746875,12.8886719 7.01302083,12.8886719 C6.32725352,12.8886719 5.73915176,12.6334661 5.24869792,12.1230469 C4.75824408,11.6126277 4.51302083,10.9928422 4.51302083,10.2636719 C4.51302083,9.54361619 4.75824408,8.92610935 5.24869792,8.41113281 C5.73915176,7.89615628 6.32725352,7.63867188 7.01302083,7.63867188 Z M7.01302083,12.0136719 C7.47309258,12.0136719 7.86371367,11.8404965 8.18489583,11.4941406 C8.50607799,11.1477847 8.66666667,10.7330753 8.66666667,10.25 C8.66666667,9.76692467 8.50390788,9.3544939 8.17838542,9.01269531 C7.85286296,8.67089673 7.46007174,8.5 7,8.5 C6.53992826,8.5 6.14713704,8.67089673 5.82161458,9.01269531 C5.49609212,9.3544939 5.33333333,9.76692467 5.33333333,10.25 C5.33333333,10.7330753 5.49826224,11.1477847 5.828125,11.4941406 C6.15798776,11.8404965 6.55294909,12.0136719 7.01302083,12.0136719 Z" id="location-pin---simple-line-icons"></path>
                    </g>
                </g>
            </g>
        </g>
    </g>
</svg>