<?xml version="1.0" encoding="UTF-8"?>
<svg width="14px" height="14px" viewBox="0 0 14 14" version="1.1" xmlns="http://www.w3.org/2000/svg" xmlns:xlink="http://www.w3.org/1999/xlink">
    <!-- Generator: Sketch 54.1 (76490) - https://sketchapp.com -->
    <title>Envelope-open - simple-line-icons</title>
    <desc>Created with Sketch.</desc>
    <g id="Symbols" stroke="none" stroke-width="1" fill="none" fill-rule="evenodd" fill-opacity="0.6">
        <g id="Artboard" transform="translate(-262.000000, -226.000000)" fill="#FFFFFF">
            <g id="_Contact-Us" transform="translate(261.000000, 130.000000)">
                <g id="Group" transform="translate(0.000000, 41.000000)">
                    <path d="M14.9863281,61.4667969 C14.9954428,61.4850261 15,61.5055337 15,61.5283203 L15,68.125 C15,68.371095 14.9134123,68.5784497 14.7402344,68.7470703 C14.5670564,68.9156909 14.3619804,69 14.125,69 L1.875,69 C1.63801965,69 1.43294357,68.9156909 1.25976562,68.7470703 C1.08658768,68.5784497 1,68.371095 1,68.125 L1,61.5761719 C1,61.4212232 1.05012971,61.2753913 1.15039062,61.1386719 C1.25065154,61.0019524 1.33268197,60.901693 1.39648438,60.8378906 L7.09765625,55.3691406 C7.34375123,55.1230456 7.65364396,55 8.02734375,55 C8.40104354,55 8.71093627,55.1230456 8.95703125,55.3691406 L14.6582031,60.8789062 L14.7402344,60.9609375 C14.7675783,60.9882814 14.7903645,61.0156249 14.8085938,61.0429688 L14.8222656,61.0566406 C14.8678388,61.1113284 14.9042967,61.1751298 14.9316406,61.2480469 C14.9589845,61.3209639 14.9772135,61.3938798 14.9863281,61.4667969 Z M4.69140625,64.9257812 L1.875,62.4511719 L1.875,67.5234375 L4.69140625,64.9257812 Z M5.59375,65.2949219 L2.50390625,68.125 L13.5371094,68.125 L8.28710938,63.4082031 C8.25065086,63.3717446 8.20279978,63.3444011 8.14355469,63.3261719 C8.0843096,63.3079426 8.02278678,63.2988281 7.95898438,63.2988281 C7.89518197,63.2988281 7.83365915,63.3102212 7.77441406,63.3330078 C7.71516897,63.3557944 7.66276064,63.3854165 7.6171875,63.421875 L5.68945312,65.1992188 L5.67578125,65.2128906 C5.66666662,65.2311199 5.65299488,65.2470702 5.63476562,65.2607422 C5.61653637,65.2744141 5.60286463,65.2858072 5.59375,65.2949219 Z M11.3496094,64.9941406 L14.125,67.4824219 L14.125,62.5332031 L11.3496094,64.9941406 Z M2.421875,61.0566406 L2.39453125,61.0566406 L2.02539062,61.4121094 L5.33398438,64.3378906 L7.05664062,62.7519531 C7.33007949,62.533202 7.63313636,62.4261067 7.96582031,62.4306641 C8.29850427,62.4352214 8.59244664,62.5377594 8.84765625,62.7382812 L10.7070312,64.3925781 L14.015625,61.453125 L13.2636719,60.7011719 L13.2773438,60.7011719 L8.34179688,55.984375 C8.29622373,55.9479165 8.24609402,55.9182944 8.19140625,55.8955078 C8.13671848,55.8727212 8.08203152,55.8613281 8.02734375,55.8613281 C7.97265598,55.8613281 7.91796902,55.8727212 7.86328125,55.8955078 C7.80859348,55.9182944 7.75846377,55.9479165 7.71289062,55.984375 L2.421875,61.0566406 Z" id="Envelope-open---simple-line-icons"></path>
                </g>
            </g>
        </g>
    </g>
</svg>