<?xml version="1.0" encoding="UTF-8"?>
<svg width="20px" height="20px" viewBox="0 0 20 20" version="1.1" xmlns="http://www.w3.org/2000/svg" xmlns:xlink="http://www.w3.org/1999/xlink">
    <!-- Generator: Sketch 54.1 (76490) - https://sketchapp.com -->
    <title>Shape</title>
    <desc>Created with Sketch.</desc>
    <g id="Symbols" stroke="none" stroke-width="1" fill="none" fill-rule="evenodd">
        <g id="#-FOOTER" transform="translate(-993.000000, -255.000000)" fill="#FFFFFF" fill-rule="nonzero">
            <g id="facebook-">
                <g transform="translate(993.000000, 255.000000)">
                    <path d="M0,5 L0,15 C3.38176876e-16,17.7614237 2.23857625,20 5,20 L15,20 C17.7614237,20 20,17.7614237 20,15 L20,5 C20,2.23857625 17.7614237,-5.07265313e-16 15,0 L5,0 C2.23857625,5.07265313e-16 -3.38176876e-16,2.23857625 0,5 Z M13.2309451,5.50404396 L11.6676923,5.50404396 C11.3580659,5.50404396 11.0455824,5.82404396 11.0455824,6.06210989 L11.0455824,7.65613187 L13.2278681,7.65613187 C13.14,8.87841758 12.9596044,9.99613187 12.9596044,9.99613187 L11.0344176,9.99613187 L11.0344176,16.9230769 L8.16558242,16.9230769 L8.16558242,9.99538462 L6.76905495,9.99538462 L6.76905495,7.66443956 L8.16558242,7.66443956 L8.16558242,5.75868132 C8.16558242,5.4101978 8.09498901,3.07696703 11.105011,3.07696703 L13.230989,3.07696703 L13.230989,5.50404396 L13.2309451,5.50404396 Z" id="Shape"></path>
                </g>
            </g>
        </g>
    </g>
</svg>