<?xml version="1.0" encoding="UTF-8"?>
<svg width="220px" height="507px" viewBox="0 0 220 507" version="1.1" xmlns="http://www.w3.org/2000/svg" xmlns:xlink="http://www.w3.org/1999/xlink">
    <!-- Generator: Sketch 54.1 (76490) - https://sketchapp.com -->
    <title>_Element left</title>
    <desc>Created with Sketch.</desc>
    <g id="01.HomePage" stroke="none" stroke-width="1" fill="none" fill-rule="evenodd" opacity="0.129464286">
        <g id="1.1-Home---Demo-4" transform="translate(0.000000, -794.000000)" fill="#004EA2">
            <g id="#-Technology" transform="translate(-585.000000, 767.000000)">
                <g id="_Element-left" transform="translate(511.662394, 437.725262) rotate(-30.000000) translate(-511.662394, -437.725262) translate(63.162394, 191.225262)">
                    <polygon id="Fill-1" points="488.777477 297 488.428002 296.931684 421.714186 283.588252 421.601364 283.254871 400 219.551801 401.172252 219.163768 422.660793 282.527992 488.320683 295.655546 532.599351 245.760455 511.108058 182.396231 512.285814 182 534 246.039184 533.7661 246.304249"></polygon>
                    <polygon id="Fill-9" points="574.827713 238 559 214.238941 571.553014 189 572.652808 189.544627 560.417939 214.148626 575.464003 236.727379 602.925949 234.994973 603 236.221068"></polygon>
                    <polygon id="Fill-11" points="572.788054 189 550 155.121463 568.136022 119 569.254167 119.542995 551.43012 155.031418 573.42305 187.731192 613.074375 185.261792 630.890138 149.767911 632 150.316364 613.863978 186.437826"></polygon>
                    <polygon id="Fill-13" points="568.51061 117 559 88.6839154 559.233556 88.4115668 578.933717 66 608.492106 71.967158 618 100.28869 616.843084 100.678148 607.557883 73.0293175 579.379102 67.3372317 560.38504 88.9589875 569.672957 116.605095"></polygon>
                    <polygon id="Fill-17" points="650.489601 117 618 101.293341 618.548255 100.220248 650.399138 115.614589 679.719824 96.635265 677.482943 62.0747428 678.713776 62 681 97.2572316"></polygon>
                    <polygon id="Fill-19" points="711.354145 119 681 99.0174049 681.683106 98 711.445042 117.584362 743.449108 101.854137 744 102.950643"></polygon>
                    <polygon id="Fill-21" points="663.351491 170 633 150.017669 633.688555 149 663.44238 168.58945 695.449156 152.855138 696 153.951929"></polygon>
                    <polygon id="Fill-23" points="675.705729 204 663 170.387071 664.300347 170 677 203.612929"></polygon>
                    <polygon id="Fill-25" points="678.66016 60 678 59.0007306 706.759539 39.7601072 704.584738 5.07233317 705.782609 5 708 40.3843156"></polygon>
                    <polygon id="Fill-27" points="793.804644 58 784.657088 31.7399523 756.908563 26.3317169 737.948428 47.1238596 737 46.31832 756.442767 25 785.622351 30.6794608 795 57.6121476"></polygon>
                    <polygon id="Fill-29" points="895.801838 54 886.657088 27.7345278 858.908563 22.3344292 839.948428 43.1184351 839 42.3128955 858.439961 21 887.616739 26.6821731 897 53.6067231"></polygon>
                    <polygon id="Fill-31" points="821.693097 64 793 58.6064861 793.251866 57.4583748 821.23694 62.7162028 840.0625 43 841 43.7801938"></polygon>
                    <polygon id="Fill-33" points="731.387884 159 731 157.807335 757.264919 148.656087 762.665461 120.91049 741.877034 101.948519 742.68264 101 764 120.444649 758.325497 149.621444"></polygon>
                    <polygon id="Fill-35" points="737.750538 48 709 43.0623742 709.249462 42 738 46.9352113"></polygon>
                    <polygon id="Fill-49" points="613.244201 276 612.061254 275.59012 619.58935 252.851662 604 234.842374 604.938582 234 621 252.557679"></polygon>
                    <polygon id="Fill-51" points="621.927627 209 615 186.392831 616.069855 186 623 208.598869"></polygon>
                    <polygon id="Fill-61" points="543.456742 346 500.779792 337.565215 500.659968 337.228699 487 297.39397 488.189883 297 501.7356 336.495477 542.994165 344.653936 571.058125 313.385315 572 314.20335"></polygon>
                    <polygon id="Fill-63" points="484.605315 376 463 365.1745 463.552559 364.038958 484.519238 374.547628 503.703292 361.664133 502.234431 338.078507 503.481158 338 505 362.309009"></polygon>
                    <path d="M525,245.5 C525,241.359347 528.357234,238 532.506807,238 C536.645489,238 540,241.359347 540,245.5 C540,249.640653 536.645489,253 532.506807,253 C528.357234,253 525,249.640653 525,245.5" id="Fill-89"></path>
                    <path d="M567,188.497277 C567,184.357843 570.351788,181 574.498639,181 C578.640044,181 582,184.357843 582,188.497277 C582,192.64488 578.640044,196 574.498639,196 C570.351788,196 567,192.64488 567,188.497277" id="Fill-93"></path>
                    <path d="M674,98.5 C674,94.3593466 677.355729,91 681.504086,91 C685.638823,91 689,94.3593466 689,98.5 C689,102.637931 685.638823,106 681.504086,106 C677.355729,106 674,102.637931 674,98.5" id="Fill-95"></path>
                    <path d="M812,62.5013614 C812,58.3545108 815.354511,55 819.498639,55 C823.640044,55 827,58.3545108 827,62.5013614 C827,66.6427664 823.640044,70 819.498639,70 C815.354511,70 812,66.6427664 812,62.5013614" id="Fill-97"></path>
                    <path d="M780,33.004394 C780,30.7956792 781.781685,29 783.99707,29 C786.206593,29 788,30.7956792 788,33.004394 C788,35.2101794 786.206593,37 783.99707,37 C781.781685,37 780,35.2101794 780,33.004394" id="Fill-99"></path>
                    <path d="M855,21.0029283 C855,18.7920937 856.786237,17 859,17 C861.207906,17 863,18.7920937 863,21.0029283 C863,23.2079063 861.207906,25 859,25 C856.786237,25 855,23.2079063 855,21.0029283" id="Fill-101"></path>
                    <path d="M612,187.5 C612,186.122549 613.120098,185 614.5,185 C615.884804,185 617,186.122549 617,187.5 C617,188.879902 615.884804,190 614.5,190 C613.120098,190 612,188.879902 612,187.5" id="Fill-105"></path>
                    <path d="M659,169.501225 C659,168.121999 660.111655,167 661.495103,167 C662.880999,167 664,168.121999 664,169.501225 C664,170.878001 662.880999,172 661.495103,172 C660.111655,172 659,170.878001 659,169.501225" id="Fill-107"></path>
                    <path d="M708,42.5 C708,41.122549 709.120098,40 710.502451,40 C711.887255,40 713,41.122549 713,42.5 C713,43.879902 711.887255,45 710.502451,45 C709.120098,45 708,43.879902 708,42.5" id="Fill-109"></path>
                    <path d="M753,25.5 C753,24.119001 754.119001,23 755.502449,23 C756.883448,23 758,24.119001 758,25.5 C758,26.880999 756.883448,28 755.502449,28 C754.119001,28 753,26.880999 753,25.5" id="Fill-111"></path>
                    <path d="M497,338.0025 C497,335.7925 498.79056,334 501.003751,334 C503.214442,334 505,335.7925 505,338.0025 C505,340.21 503.214442,342 501.003751,342 C498.79056,342 497,340.21 497,338.0025" id="Fill-125"></path>
                    <path d="M540,346.497559 C540,345.115723 541.120605,344 542.502441,344 C543.881836,344 545,345.115723 545,346.497559 C545,347.879395 543.881836,349 542.502441,349 C541.120605,349 540,347.879395 540,346.497559" id="Fill-145"></path>
                    <path d="M567,312.00125 C567,309.79194 568.789441,308 571.003749,308 C573.210559,308 575,309.79194 575,312.00125 C575,314.20806 573.210559,316 571.003749,316 C568.789441,316 567,314.20806 567,312.00125" id="Fill-157"></path>
                    <path d="M574,238.003749 C574,235.79194 575.786675,234 578.006256,234 C580.210823,234 582,235.79194 582,238.003749 C582,240.20806 580.210823,242 578.006256,242 C575.786675,242 574,240.20806 574,238.003749" id="Fill-159"></path>
                    <path d="M628,149 C628,146.788882 629.788618,145 632,145 C634.211382,145 636,146.788882 636,149 C636,151.203623 634.211382,153 632,153 C629.788618,153 628,151.203623 628,149" id="Fill-167"></path>
                    <path d="M674,62 C674,59.7963773 675.789177,58 678.001251,58 C680.213325,58 682,59.7963773 682,62 C682,64.2111181 680.213325,66 678.001251,66 C675.789177,66 674,64.2111181 674,62" id="Fill-169"></path>
                    <path d="M740,101.9975 C740,99.7925 741.789441,98 744.00125,98 C746.205561,98 748,99.7925 748,101.9975 C748,104.21 746.205561,106 744.00125,106 C741.789441,106 740,104.21 740,101.9975" id="Fill-171"></path>
                    <path d="M481,374.501525 C481,373.119585 482.109756,372 483.496951,372 C484.881098,372 486,373.119585 486,374.501525 C486,375.883466 484.881098,377 483.496951,377 C482.109756,377 481,375.883466 481,374.501525" id="Fill-177"></path>
                    <path d="M500,361.498475 C500,360.116534 501.11754,359 502.503045,359 C503.87637,359 505,360.116534 505,361.498475 C505,362.880415 503.87637,364 502.503045,364 C501.11754,364 500,362.880415 500,361.498475" id="Fill-179"></path>
                    <path d="M457,363.0025 C457,360.79 458.785558,359 460.99875,359 C463.20694,359 465,360.79 465,363.0025 C465,365.2075 463.20694,367 460.99875,367 C458.785558,367 457,365.2075 457,363.0025" id="Fill-181"></path>
                    <path d="M604,236.501221 C604,235.11871 605.11437,234 606.497556,234 C607.878299,234 609,235.11871 609,236.501221 C609,237.878847 607.878299,239 606.497556,239 C605.11437,239 604,237.878847 604,236.501221" id="Fill-191"></path>
                    <path d="M609,275.503664 C609,274.121153 610.12439,273 611.5,273 C612.880488,273 614,274.121153 614,275.503664 C614,276.88129 612.880488,278 611.5,278 C610.12439,278 609,276.88129 609,275.503664" id="Fill-193"></path>
                    <path d="M619,252.996865 C619,251.893417 619.897255,251 621.001569,251 C622.102745,251 623,251.893417 623,252.996865 C623,254.100313 622.102745,255 621.001569,255 C619.897255,255 619,254.100313 619,252.996865" id="Fill-195"></path>
                    <path d="M705,5.99843137 C705,4.89411765 705.894819,4 706.99686,4 C708.098901,4 709,4.89411765 709,5.99843137 C709,7.10588235 708.098901,8 706.99686,8 C705.894819,8 705,7.10588235 705,5.99843137" id="Fill-209"></path>
                    <path d="M883,27.4970238 C883,26.1220238 884.114744,25 885.502973,25 C886.87931,25 888,26.1220238 888,27.4970238 C888,28.8809524 886.87931,30 885.502973,30 C884.114744,30 883,28.8809524 883,27.4970238" id="Fill-211"></path>
                    <path d="M893,54.9983779 C893,53.8986212 893.898621,53 894.998378,53 C896.107867,53 897,53.8986212 897,54.9983779 C897,56.1013788 896.107867,57 894.998378,57 C893.898621,57 893,56.1013788 893,54.9983779" id="Fill-213"></path>
                    <path d="M672,202.995294 C672,201.897255 672.894118,201 673.998431,201 C675.105882,201 676,201.897255 676,202.995294 C676,204.105882 675.105882,205 673.998431,205 C672.894118,205 672,204.105882 672,202.995294" id="Fill-215"></path>
                    <path d="M693,152.995294 C693,151.89098 693.901099,151 695.00314,151 C696.105181,151 697,151.89098 697,152.995294 C697,154.099608 696.105181,155 695.00314,155 C693.901099,155 693,154.099608 693,152.995294" id="Fill-217"></path>
                    <path d="M763,119.5 C763,118.123898 764.112745,117 765.5,117 C766.879902,117 768,118.123898 768,119.5 C768,120.880999 766.879902,122 765.5,122 C764.112745,122 763,120.880999 763,119.5" id="Fill-219"></path>
                    <path d="M730,159.001569 C730,157.900392 730.894118,157 731.998431,157 C733.105882,157 734,157.900392 734,159.001569 C734,160.105882 733.105882,161 731.998431,161 C730.894118,161 730,160.105882 730,159.001569" id="Fill-221"></path>
                    <path d="M619,209.004706 C619,207.894118 619.900392,207 621.004706,207 C622.105882,207 623,207.894118 623,209.004706 C623,210.105882 622.105882,211 621.004706,211 C619.900392,211 619,210.105882 619,209.004706" id="Fill-223"></path>
                </g>
            </g>
        </g>
    </g>
</svg>