<?xml version="1.0" encoding="UTF-8"?>
<svg width="12px" height="11px" viewBox="0 0 12 11" version="1.1" xmlns="http://www.w3.org/2000/svg" xmlns:xlink="http://www.w3.org/1999/xlink">
    <!-- Generator: Sketch 54.1 (76490) - https://sketchapp.com -->
    <title>person - material</title>
    <desc>Created with Sketch.</desc>
    <g id="05.Login---Register" stroke="none" stroke-width="1" fill="none" fill-rule="evenodd">
        <g id="5.4.1-Account-Info-Forgot-pass" transform="translate(-172.000000, -330.000000)" fill="#1E1E1E">
            <g id="_Category" transform="translate(150.000000, 227.000000)">
                <g id="01-TT-tai-khoan" transform="translate(0.500000, 82.300000)">
                    <path d="M27.5,27.01 C28.1200031,27.01 28.7999963,27.0999991 29.54,27.28 C30.3800042,27.490001 31.0599974,27.7699982 31.58,28.12 C32.2000031,28.530002 32.51,28.9899974 32.51,29.5 L32.51,30.76 L22.49,30.76 L22.49,29.5 C22.49,28.9899974 22.7999969,28.530002 23.42,28.12 C23.9400026,27.7699982 24.6199958,27.490001 25.46,27.28 C26.2000037,27.0999991 26.8799969,27.01 27.5,27.01 Z M27.5,25.75 C27.0499977,25.75 26.6350019,25.6375011 26.255,25.4125 C25.8749981,25.1874989 25.5725011,24.8850019 25.3475,24.505 C25.1224989,24.1249981 25.01,23.7100022 25.01,23.26 C25.01,22.8099977 25.1224989,22.3900019 25.3475,22 C25.5725011,21.609998 25.8749981,21.3025011 26.255,21.0775 C26.6350019,20.8524989 27.0499977,20.74 27.5,20.74 C27.9500022,20.74 28.3649981,20.8524989 28.745,21.0775 C29.1250019,21.3025011 29.4274989,21.609998 29.6525,22 C29.8775011,22.3900019 29.99,22.8099977 29.99,23.26 C29.99,23.7100022 29.8775011,24.1249981 29.6525,24.505 C29.4274989,24.8850019 29.1250019,25.1874989 28.745,25.4125 C28.3649981,25.6375011 27.9500022,25.75 27.5,25.75 Z" id="person---material"></path>
                </g>
            </g>
        </g>
    </g>
</svg>