<?xml version="1.0" encoding="UTF-8"?>
<svg width="12px" height="12px" viewBox="0 0 12 12" version="1.1" xmlns="http://www.w3.org/2000/svg" xmlns:xlink="http://www.w3.org/1999/xlink">
    <!-- Generator: Sketch 54.1 (76490) - https://sketchapp.com -->
    <title>ion-android-list - Ionicons</title>
    <desc>Created with Sketch.</desc>
    <g id="05.Login---Register" stroke="none" stroke-width="1" fill="none" fill-rule="evenodd">
        <g id="5.4.1-Account-Info-Forgot-pass" transform="translate(-170.000000, -384.000000)" fill="#545454">
            <g id="_Category" transform="translate(150.000000, 227.000000)">
                <g id="02-Qly-don-hang" transform="translate(0.500000, 135.533333)">
                    <path d="M30.078125,21.5166667 C30.3906266,21.5166667 30.6640613,21.633853 30.8984375,21.8682292 C31.1328137,22.1026053 31.25,22.3760401 31.25,22.6885417 L31.25,31.5947917 C31.25,31.9072932 31.1328137,32.180728 30.8984375,32.4151042 C30.6640613,32.6494803 30.3906266,32.7666667 30.078125,32.7666667 L21.171875,32.7666667 C20.8593734,32.7666667 20.5859387,32.6494803 20.3515625,32.4151042 C20.1171863,32.180728 20,31.9072932 20,31.5947917 L20,22.6885417 C20,22.3760401 20.1171863,22.1026053 20.3515625,21.8682292 C20.5859387,21.633853 20.8593734,21.5166667 21.171875,21.5166667 L30.078125,21.5166667 Z M27.03125,30.4229167 L27.03125,29.0166667 L22.34375,29.0166667 L22.34375,30.4229167 L27.03125,30.4229167 Z M28.90625,27.8447917 L28.90625,26.4385417 L22.34375,26.4385417 L22.34375,27.8447917 L28.90625,27.8447917 Z M28.90625,25.2666667 L28.90625,23.8604167 L22.34375,23.8604167 L22.34375,25.2666667 L28.90625,25.2666667 Z" id="ion-android-list---Ionicons"></path>
                </g>
            </g>
        </g>
    </g>
</svg>