<?xml version="1.0" encoding="UTF-8"?>
<svg width="14px" height="9px" viewBox="0 0 14 9" version="1.1" xmlns="http://www.w3.org/2000/svg" xmlns:xlink="http://www.w3.org/1999/xlink">
    <!-- Generator: Sketch 54.1 (76490) - https://sketchapp.com -->
    <title>ion-eye - Ionicons</title>
    <desc>Created with Sketch.</desc>
    <g id="05.Login---Register" stroke="none" stroke-width="1" fill="none" fill-rule="evenodd">
        <g id="5.4.1-Account-Info-Forgot-pass" transform="translate(-170.000000, -437.000000)" fill="#545454">
            <g id="_Category" transform="translate(150.000000, 227.000000)">
                <g id="03-San-pham-da-xem" transform="translate(0.500000, 188.766667)">
                    <path d="M26.5625,22.1583333 C28.7109482,22.1583333 30.8984264,23.4180864 33.125,25.9376302 C32.5976536,26.4649766 32.2607429,26.7970045 32.1142578,26.933724 C31.9677727,27.0704434 31.611331,27.3731747 31.0449219,27.8419271 C30.4785128,28.3106794 30.019533,28.6329418 29.6679688,28.808724 C29.3164045,28.9845061 28.8525419,29.1700511 28.2763672,29.3653646 C27.7001924,29.5606781 27.1289091,29.6583333 26.5625,29.6583333 C25.8593715,29.6583333 25.2148467,29.5704436 24.6289062,29.3946615 C24.0429658,29.2188793 23.4570342,28.916148 22.8710938,28.4864583 C22.2851533,28.0567687 21.8261735,27.6905614 21.4941406,27.3878255 C21.1621077,27.0850896 20.6640658,26.5919305 20,25.9083333 C21.2695376,24.6387957 22.397456,23.6964223 23.3837891,23.0811849 C24.3701221,22.4659474 25.4296818,22.1583333 26.5625,22.1583333 Z M26.5625,28.574349 C27.2851599,28.574349 27.9052708,28.3106797 28.4228516,27.7833333 C28.9404323,27.2559869 29.1992188,26.6309932 29.1992188,25.9083333 C29.1992188,25.1856735 28.9404323,24.5606797 28.4228516,24.0333333 C27.9052708,23.5059869 27.2851599,23.2423177 26.5625,23.2423177 C25.8398401,23.2423177 25.2197292,23.5059869 24.7021484,24.0333333 C24.1845677,24.5606797 23.9257812,25.1856735 23.9257812,25.9083333 C23.9257812,26.6309932 24.1845677,27.2559869 24.7021484,27.7833333 C25.2197292,28.3106797 25.8398401,28.574349 26.5625,28.574349 Z M26.5625,24.9708333 C26.5625,25.2442722 26.6503897,25.4688793 26.8261719,25.6446615 C27.001954,25.8204436 27.2265611,25.9083333 27.5,25.9083333 C27.6953135,25.9083333 27.890624,25.8399746 28.0859375,25.7032552 L28.0859375,25.9083333 C28.0859375,26.338023 27.9394546,26.7042303 27.6464844,27.0069661 C27.3535142,27.309702 26.9921896,27.4610677 26.5625,27.4610677 C26.1328104,27.4610677 25.7714858,27.309702 25.4785156,27.0069661 C25.1855454,26.7042303 25.0390625,26.338023 25.0390625,25.9083333 C25.0390625,25.4786437 25.1855454,25.1124364 25.4785156,24.8097005 C25.7714858,24.5069646 26.1328104,24.355599 26.5625,24.355599 L26.796875,24.355599 C26.6406242,24.5509124 26.5625,24.7559885 26.5625,24.9708333 Z" id="ion-eye---Ionicons"></path>
                </g>
            </g>
        </g>
    </g>
</svg>