<?xml version="1.0" encoding="UTF-8"?>
<svg width="13px" height="12px" viewBox="0 0 13 12" version="1.1" xmlns="http://www.w3.org/2000/svg" xmlns:xlink="http://www.w3.org/1999/xlink">
    <!-- Generator: Sketch 54.1 (76490) - https://sketchapp.com -->
    <title>ion-heart - Ionicons</title>
    <desc>Created with Sketch.</desc>
    <g id="05.Login---Register" stroke="none" stroke-width="1" fill="none" fill-rule="evenodd">
        <g id="5.4.1-Account-Info-Forgot-pass" transform="translate(-170.000000, -487.000000)" fill="#545454">
            <g id="_Category" transform="translate(150.000000, 227.000000)">
                <g id="04-Sp-Yeu-thich" transform="translate(0.500000, 242.000000)">
                    <path d="M31.1914062,18.9875 C31.8554721,19.6710972 32.1875,20.5060498 32.1875,21.4923828 C32.1875,22.4787159 31.8554721,23.3136685 31.1914062,23.9972656 L26.09375,29.3 L20.9960938,23.9972656 C20.3320279,23.3136685 20,22.4787159 20,21.4923828 C20,20.5060498 20.3320279,19.6710972 20.9960938,18.9875 C21.5820342,18.3624969 22.2998004,18.05 23.1494141,18.05 C23.9990277,18.05 24.7167939,18.3624969 25.3027344,18.9875 L26.09375,19.8078125 L26.9140625,18.9875 C27.5000029,18.3624969 28.2128864,18.05 29.0527344,18.05 C29.8925823,18.05 30.6054658,18.3624969 31.1914062,18.9875 Z" id="ion-heart---Ionicons"></path>
                </g>
            </g>
        </g>
    </g>
</svg>