<?xml version="1.0" encoding="UTF-8"?>
<svg width="128px" height="125px" viewBox="0 0 128 125" version="1.1" xmlns="http://www.w3.org/2000/svg" xmlns:xlink="http://www.w3.org/1999/xlink">
    <!-- Generator: Sketch 51.3 (57544) - http://www.bohemiancoding.com/sketch -->
    <title>cart</title>
    <desc>Created with Sketch.</desc>
    <defs></defs>
    <g id="02.Product" stroke="none" stroke-width="1" fill="none" fill-rule="evenodd">
        <g id="2.3.4.-Payment--Successful" transform="translate(-655.000000, -408.000000)" fill="#BFBFBF">
            <g id="#-Info" transform="translate(437.000000, 283.000000)">
                <g id="#-Complete" transform="translate(79.000000, 44.000000)">
                    <g id="cart" transform="translate(139.000000, 81.000000)">
                        <ellipse id="Oval" fill-rule="nonzero" cx="45.2438899" cy="109.392272" rx="15.4821284" ry="15.4379391"></ellipse>
                        <path d="M94.8468257,93.8044496 C86.2546789,92.9613583 78.6040367,99.2230679 77.7585321,107.790691 C76.9130275,116.358314 83.1926606,123.987119 91.7848073,124.830211 C92.8029358,124.930035 93.8286972,124.930035 94.8468257,124.830211 C103.438972,123.987119 109.718606,116.358314 108.873101,107.790691 C108.142679,100.388759 102.269651,94.5327869 94.8468257,93.8044496 Z" id="Shape" fill-rule="nonzero"></path>
                        <path d="M126.712954,35.0503513 C125.94378,33.9019321 124.640587,33.2239461 123.25578,33.2517564 L106.12022,33.2517564 L106.12022,32.9519906 C106.121394,14.8234778 91.384367,0.1264637 73.2039633,0.12529274 C55.0238532,0.12412178 40.2847706,14.8190867 40.2835963,32.9475995 C40.2835963,32.9490632 40.2835963,32.9505269 40.2835963,32.9519906 L40.2835963,33.2517564 L27.5070826,33.2517564 L23.1480367,13.4672131 C22.6639266,11.4546253 20.8645872,10.0316159 18.7889908,10.0199063 L0,10.0199063 L0,19.0128806 L15.1815046,19.0128806 L29.1605138,83.0128806 C29.5295413,85.117096 31.3776147,86.6419789 33.5195596,86.6100703 L112.132697,86.6100703 C114.208294,86.5980679 116.007339,85.1753513 116.491743,83.1627635 L127.614826,38.7974239 C127.940991,37.4762881 127.604844,36.0796253 126.712954,35.0503513 Z M73.2019083,56.7833724 C60.0026422,56.7833724 49.3023119,46.1135831 49.3023119,32.9519906 C49.3023119,19.7903981 60.0026422,9.1206089 73.2019083,9.1206089 C86.4011743,9.1206089 97.1015046,19.7903981 97.1015046,32.9519906 C97.0195963,46.0796253 86.3671193,56.7014052 73.2019083,56.7833724 Z" id="Shape" fill-rule="nonzero"></path>
                        <path d="M85.0759239,38.7008877 C85.0759239,39.2031205 84.8750308,39.7053532 84.5134233,40.0669608 L81.7812772,42.7991069 C81.4196696,43.1607145 80.9174368,43.3616076 80.4152041,43.3616076 C79.9129714,43.3616076 79.4107386,43.1607145 79.049131,42.7991069 L73.142874,36.8928499 L67.236617,42.7991069 C66.8750094,43.1607145 66.3727766,43.3616076 65.8705439,43.3616076 C65.3683112,43.3616076 64.8660784,43.1607145 64.5044708,42.7991069 L61.7723247,40.0669608 C61.4107172,39.7053532 61.2098241,39.2031205 61.2098241,38.7008877 C61.2098241,38.198655 61.4107172,37.6964222 61.7723247,37.3348147 L67.6785818,31.4285576 L61.7723247,25.5223006 C61.4107172,25.160693 61.2098241,24.6584603 61.2098241,24.1562275 C61.2098241,23.6539948 61.4107172,23.1517621 61.7723247,22.7901545 L64.5044708,20.0580084 C64.8660784,19.6964008 65.3683112,19.4955077 65.8705439,19.4955077 C66.3727766,19.4955077 66.8750094,19.6964008 67.236617,20.0580084 L73.142874,25.9642654 L79.049131,20.0580084 C79.4107386,19.6964008 79.9129714,19.4955077 80.4152041,19.4955077 C80.9174368,19.4955077 81.4196696,19.6964008 81.7812772,20.0580084 L84.5134233,22.7901545 C84.8750308,23.1517621 85.0759239,23.6539948 85.0759239,24.1562275 C85.0759239,24.6584603 84.8750308,25.160693 84.5134233,25.5223006 L78.6071662,31.4285576 L84.5134233,37.3348147 C84.8750308,37.6964222 85.0759239,38.198655 85.0759239,38.7008877 Z" id="Times---FontAwesome"></path>
                    </g>
                </g>
            </g>
        </g>
    </g>
</svg>