<?xml version="1.0" encoding="UTF-8"?>
<svg width="40px" height="34px" viewBox="0 0 40 34" version="1.1" xmlns="http://www.w3.org/2000/svg" xmlns:xlink="http://www.w3.org/1999/xlink">
    <!-- Generator: Sketch 54.1 (76490) - https://sketchapp.com -->
    <title>_heart</title>
    <desc>Created with Sketch.</desc>
    <g id="02.-Product" stroke="none" stroke-width="1" fill="none" fill-rule="evenodd">
        <g id="2.2a-Product-Detail" transform="translate(-1109.000000, -745.000000)" fill="#E85C8C">
            <g id="#-Part-1" transform="translate(171.000000, 250.000000)">
                <g id="_heart" transform="translate(938.000000, 495.000000)">
                    <path d="M39.0625352,6.98214286 C39.6875149,8.4494121 40,9.99255143 40,11.6116071 C40,13.3824493 39.6224138,15.0520755 38.86723,16.6205357 C38.1120463,18.1889959 37.057409,19.5171077 35.7032864,20.6049107 C34.7137353,21.4903318 32.1617733,23.7544461 28.047324,27.3973214 C24.1932828,30.8125171 21.836624,32.8995498 20.977277,33.6584821 C20.690828,33.8861619 20.3653227,34 20.0007512,34 C19.6361797,34 19.3106744,33.8861619 19.0242254,33.6584821 C17.7482252,32.5453813 14.4020302,29.5729408 8.98553993,24.7410714 C6.40749887,22.4642743 4.93621468,21.1741087 4.57164322,20.8705357 C4.46747994,20.7693447 4.35029802,20.6681553 4.22009392,20.5669643 C2.89201216,19.4791612 1.86341525,18.1573739 1.13427233,16.6015625 C0.405129402,15.0457511 0.027543194,13.395098 0.0015023752,11.6495536 C-0.0245384436,10.0557956 0.287946694,8.51265627 0.938967163,7.02008929 C1.53790599,5.60341554 2.39724012,4.35119592 3.51699533,3.26339286 C5.70442411,1.08778674 8.32148714,0 11.3682629,0 C13.0348753,0 14.6168313,0.354163125 16.1141784,1.0625 C17.6115255,1.77083687 18.9070368,2.77008283 20.0007512,4.06026786 C21.0944656,2.77008283 22.3899769,1.77083687 23.887324,1.0625 C25.384671,0.354163125 26.966627,0 28.6332394,0 C31.6800152,0 34.2970783,1.07513806 36.484507,3.22544643 C37.6042623,4.31324949 38.4635964,5.56546911 39.0625352,6.98214286 Z" id="heart---anticon"></path>
                    <path d="M39.0625352,6.98214286 C39.6875149,8.4494121 40,9.99255143 40,11.6116071 C40,13.3824493 39.6224138,15.0520755 38.86723,16.6205357 C38.1120463,18.1889959 37.057409,19.5171077 35.7032864,20.6049107 C34.7137353,21.4903318 32.1617733,23.7544461 28.047324,27.3973214 C24.1932828,30.8125171 21.836624,32.8995498 20.977277,33.6584821 C20.690828,33.8861619 20.3653227,34 20.0007512,34 C19.6361797,34 19.3106744,33.8861619 19.0242254,33.6584821 C17.7482252,32.5453813 14.4020302,29.5729408 8.98553993,24.7410714 C6.40749887,22.4642743 4.93621468,21.1741087 4.57164322,20.8705357 C4.46747994,20.7693447 4.35029802,20.6681553 4.22009392,20.5669643 C2.89201216,19.4791612 1.86341525,18.1573739 1.13427233,16.6015625 C0.405129402,15.0457511 0.027543194,13.395098 0.0015023752,11.6495536 C-0.0245384436,10.0557956 0.287946694,8.51265627 0.938967163,7.02008929 C1.53790599,5.60341554 2.39724012,4.35119592 3.51699533,3.26339286 C5.70442411,1.08778674 8.32148714,0 11.3682629,0 C13.0348753,0 14.6168313,0.354163125 16.1141784,1.0625 C17.6115255,1.77083687 18.9070368,2.77008283 20.0007512,4.06026786 C21.0944656,2.77008283 22.3899769,1.77083687 23.887324,1.0625 C25.384671,0.354163125 26.966627,0 28.6332394,0 C31.6800152,0 34.2970783,1.07513806 36.484507,3.22544643 C37.6042623,4.31324949 38.4635964,5.56546911 39.0625352,6.98214286 Z M22.188169,6.07142857 C21.6413118,6.77976545 20.9121798,7.13392857 20.0007512,7.13392857 C19.0893225,7.13392857 18.3601905,6.77976545 17.8133333,6.07142857 C17.0321088,5.0848165 16.0751231,4.31324683 14.9423474,3.75669643 C13.8095718,3.20014603 12.6182222,2.921875 11.3682629,2.921875 C9.15479334,2.921875 7.24082187,3.71874203 5.6262911,5.3125 C4.7929849,6.12202786 4.15499441,7.0580304 3.71230049,8.12053571 C3.21752494,9.23363652 2.98316108,10.409964 3.0092019,11.6495536 C3.0092019,12.9397386 3.2826264,14.1729852 3.82948359,15.3493304 C4.37634079,16.5256755 5.15755363,17.5185971 6.17314556,18.328125 C6.2252272,18.4040182 6.32938891,18.492559 6.48563383,18.59375 C6.51167464,18.6190477 6.53771507,18.6569938 6.56375589,18.7075893 C7.03249063,19.1123532 8.25639075,20.1874913 10.235493,21.9330357 L12.1104226,23.6026786 C15.8603005,26.9166832 18.4903837,29.2440409 20.0007512,30.5848214 C21.1986289,29.5223161 23.2037418,27.7515005 26.0161502,25.2723214 C29.5316608,22.1101032 32.096643,19.8333403 33.7111737,18.4419643 L33.7892958,18.3660714 C34.7788469,17.5818413 35.5600597,16.6078927 36.1329577,15.4441964 C36.7058558,14.2299046 36.9923005,12.9523877 36.9923005,11.6116071 C36.9923005,10.3720176 36.7579366,9.19569009 36.2892019,8.08258929 C35.846508,7.02008397 35.2085175,6.08408143 34.3752113,5.27455357 C32.7606805,3.70609335 30.846709,2.921875 28.6332394,2.921875 C27.3832801,2.921875 26.1919306,3.19382169 25.0591549,3.73772321 C23.9263793,4.28162474 22.9693936,5.05951875 22.188169,6.07142857 Z" id="heart-o---anticon"></path>
                </g>
            </g>
        </g>
    </g>
</svg>