<?xml version="1.0" encoding="UTF-8"?>
<svg width="54px" height="54px" viewBox="0 0 54 54" version="1.1" xmlns="http://www.w3.org/2000/svg" xmlns:xlink="http://www.w3.org/1999/xlink">
    <!-- Generator: Sketch 54.1 (76490) - https://sketchapp.com -->
    <title>icon_Cart Info</title>
    <desc>Created with Sketch.</desc>
    <g id="02.-Product-+-Payment" stroke="none" stroke-width="1" fill="none" fill-rule="evenodd">
        <g id="2.3.3-Payment" transform="translate(-565.000000, -257.000000)">
            <g id="#-STEPT" transform="translate(0.000000, 221.000000)">
                <g id="_B1" transform="translate(566.000000, 37.000000)">
                    <g id="icon_Cart-Info">
                        <g>
                            <circle id="Oval-Copy-3" stroke="#004EA2" stroke-width="1.4" cx="26" cy="26" r="26"></circle>
                            <path d="M34.5078125,19.578125 C34.8203141,19.8906266 34.9765625,20.2812477 34.9765625,20.75 L34.9765625,33.3125 C34.9765625,33.7812523 34.8164079,34.1796859 34.4960938,34.5078125 C34.1757796,34.8359391 33.7812523,35 33.3125,35 L31.9765625,35 L31.9765625,36.3125 C31.9765625,36.7812523 31.8125016,37.1796859 31.484375,37.5078125 C31.1562484,37.8359391 30.7656273,38 30.3125,38 L18.6875,38 C18.2343727,38 17.8398454,37.8359391 17.5039062,37.5078125 C17.1679671,37.1796859 17,36.7812523 17,36.3125 L17,18.6875 C17,18.2343727 17.1679671,17.8398454 17.5039062,17.5039062 C17.8398454,17.1679671 18.2343727,17 18.6875,17 L20,17 L20,15.6875 C20,15.2187477 20.1679671,14.8203141 20.5039062,14.4921875 C20.8398454,14.1640609 21.2421852,14 21.7109375,14 L28.296875,14 C28.5312512,14 28.7578114,14.0468745 28.9765625,14.140625 C29.0078127,14.1562501 29.0312499,14.1718749 29.046875,14.1875 C29.0625001,14.1875 29.0937498,14.2031248 29.140625,14.234375 C29.2656256,14.3125004 29.382812,14.398437 29.4921875,14.4921875 L34.5078125,19.578125 Z M29.1640625,16.578125 L29.1640625,19.8125 L32.375,19.8125 L29.1640625,16.578125 Z M30.2890625,36.3125 L30.2890625,35 L21.7109375,35 C21.2421852,35 20.8398454,34.8359391 20.5039062,34.5078125 C20.1679671,34.1796859 20,33.7812523 20,33.3125 L20,18.6875 L18.6875,18.6875 L18.6875,36.3125 L30.2890625,36.3125 Z M33.2890625,33.3125 L33.2890625,21.5 L29.1875,21.5 C28.7187477,21.5 28.3164079,21.3359391 27.9804688,21.0078125 C27.6445296,20.6796859 27.4765625,20.2812523 27.4765625,19.8125 L27.4765625,15.6875 L21.6875,15.6875 L21.6875,33.3125 L33.2890625,33.3125 Z M28.7539062,24.4414062 C28.5898429,24.6054696 28.3906262,24.6875 28.15625,24.6875 L23.84375,24.6875 C23.6093738,24.6875 23.4101571,24.6054696 23.2460938,24.4414062 C23.0820304,24.2773429 23,24.0781262 23,23.84375 C23,23.6093738 23.0820304,23.4101571 23.2460938,23.2460938 C23.4101571,23.0820304 23.6093738,23 23.84375,23 L28.15625,23 C28.3906262,23 28.5898429,23.0820304 28.7539062,23.2460938 C28.9179696,23.4101571 29,23.6093738 29,23.84375 C29,24.0781262 28.9179696,24.2773429 28.7539062,24.4414062 Z M31.7539062,27.4414062 C31.5898429,27.6054696 31.3906262,27.6875 31.15625,27.6875 L23.84375,27.6875 C23.6093738,27.6875 23.4101571,27.6054696 23.2460938,27.4414062 C23.0820304,27.2773429 23,27.0781262 23,26.84375 C23,26.6093738 23.0820304,26.4101571 23.2460938,26.2460938 C23.4101571,26.0820304 23.6093738,26 23.84375,26 L31.15625,26 C31.3906262,26 31.5898429,26.0820304 31.7539062,26.2460938 C31.9179696,26.4101571 32,26.6093738 32,26.84375 C32,27.0781262 31.9179696,27.2773429 31.7539062,27.4414062 Z M30.2539062,30.4414062 C30.0898429,30.6054696 29.8906262,30.6875 29.65625,30.6875 L23.84375,30.6875 C23.6093738,30.6875 23.4101571,30.6054696 23.2460938,30.4414062 C23.0820304,30.2773429 23,30.0781262 23,29.84375 C23,29.6093738 23.0820304,29.4101571 23.2460938,29.2460938 C23.4101571,29.0820304 23.6093738,29 23.84375,29 L29.65625,29 C29.8906262,29 30.0898429,29.0820304 30.2539062,29.2460938 C30.4179696,29.4101571 30.5,29.6093738 30.5,29.84375 C30.5,30.0781262 30.4179696,30.2773429 30.2539062,30.4414062 Z" id="copy---anticon" fill="#004EA2"></path>
                        </g>
                    </g>
                </g>
            </g>
        </g>
    </g>
</svg>