<?xml version="1.0" encoding="UTF-8"?>
<svg width="54px" height="54px" viewBox="0 0 54 54" version="1.1" xmlns="http://www.w3.org/2000/svg" xmlns:xlink="http://www.w3.org/1999/xlink">
    <!-- Generator: Sketch 54.1 (76490) - https://sketchapp.com -->
    <title>icon_shipping add</title>
    <desc>Created with Sketch.</desc>
    <g id="02.-Product-+-Payment" stroke="none" stroke-width="1" fill="none" fill-rule="evenodd">
        <g id="2.3.2-Payment" transform="translate(-580.000000, -257.000000)" stroke="#004EA2">
            <g id="#-STEPT" transform="translate(0.000000, 222.000000)">
                <g id="_B1" transform="translate(581.000000, 36.000000)">
                    <g id="icon_shipping-add">
                        <g>
                            <polyline id="Shape" stroke-width="1.4" stroke-linecap="round" stroke-linejoin="round" points="32.8421053 25.5789474 32.8421053 34 15.9999684 34 15.9999684 15.0526316 26.5263158 15.0526316"></polyline>
                            <path d="M31.2218947,15.0939053 C32.044,14.2717579 33.3770526,14.2717474 34.1991579,15.0939053 L34.9061053,15.8008316 C35.7282105,16.6229895 35.7282105,17.9559684 34.9061053,18.7781158 L25.0376842,28.6465263 C24.6428421,29.0413684 24.1073684,29.2631579 23.5490526,29.2631579 L20.7368421,29.2631579 L20.7368421,26.4509474 C20.7368421,25.8926316 20.9586421,25.3571579 21.3534632,24.9623158 L31.2218947,15.0939053 Z" id="Shape" stroke-width="1.4" stroke-linecap="round" stroke-linejoin="round"></path>
                            <path d="M29.9473684,16.3684211 L33.6315789,20.0526316" id="Shape" stroke-width="1.4" stroke-linecap="round" stroke-linejoin="round"></path>
                            <circle id="Oval-Copy-3" stroke-width="1.4" cx="26" cy="26" r="26"></circle>
                        </g>
                    </g>
                </g>
            </g>
        </g>
    </g>
</svg>