<?xml version="1.0" encoding="UTF-8"?>
<svg width="13px" height="13px" viewBox="0 0 13 13" version="1.1" xmlns="http://www.w3.org/2000/svg" xmlns:xlink="http://www.w3.org/1999/xlink">
    <!-- Generator: Sketch 54.1 (76490) - https://sketchapp.com -->
    <title>phone - simple-line-icons</title>
    <desc>Created with Sketch.</desc>
    <g id="Symbols" stroke="none" stroke-width="1" fill="none" fill-rule="evenodd" fill-opacity="0.6">
        <g id="Artboard" transform="translate(-262.000000, -260.000000)" fill="#FFFFFF">
            <g id="_Contact-Us" transform="translate(261.000000, 130.000000)">
                <g id="Group" transform="translate(0.000000, 41.000000)">
                    <path d="M4.21342443,89.3014113 C4.45726273,89.6421388 4.72504542,90.0309118 5.01678054,90.4677419 C5.30851565,90.9045721 5.62419443,91.3894463 5.96382635,91.922379 C6.05091146,92.0621647 6.08792208,92.2194212 6.07485931,92.3941532 C6.06179655,92.5688853 5.99866079,92.7567194 5.88545015,92.9576613 C5.84190759,93.0450273 5.76788636,93.1848109 5.66338423,93.3770161 C5.5588821,93.5692214 5.42390221,93.8182108 5.2584405,94.1239919 C5.44131923,94.38609 5.6742684,94.6787618 5.957295,95.0020161 C6.24032161,95.3252704 6.56906296,95.6747293 6.94352892,96.0504032 C7.3267034,96.4348138 7.6772157,96.7689838 7.99507635,97.0529234 C8.31293699,97.336863 8.59813645,97.5705636 8.85068326,97.7540323 C9.14677263,97.5793002 9.39278437,97.4373325 9.58872586,97.328125 C9.78466736,97.2189175 9.92617853,97.1424733 10.0132636,97.0987903 C10.1177658,97.0376341 10.2244434,96.9917676 10.3332998,96.9611895 C10.4421562,96.9306114 10.5444797,96.9153226 10.6402733,96.9153226 C10.7186499,96.9153226 10.790494,96.9240591 10.8558079,96.9415323 C10.9211217,96.9590055 10.9842574,96.9852149 11.045217,97.0201613 C11.4371,97.2560496 11.8507481,97.5203278 12.2861736,97.813004 C12.7215991,98.1056802 13.1874975,98.4267456 13.6838826,98.7762097 C13.7709677,98.8373659 13.8406348,98.9159941 13.8928858,99.0120968 C13.9451369,99.1081994 13.9799704,99.2130371 13.9973874,99.3266129 C14.0060959,99.4489253 13.9930334,99.5734201 13.9581993,99.7001008 C13.9233653,99.8267815 13.8624066,99.9556445 13.7753215,100.086694 C13.7404875,100.14785 13.6882372,100.22211 13.6185691,100.309476 C13.548901,100.396842 13.4661714,100.497311 13.3703778,100.610887 C13.2832927,100.724463 13.1700837,100.853326 13.0307476,100.99748 C12.8914114,101.141634 12.7259522,101.301074 12.5343649,101.475806 C12.3514862,101.650539 12.1838499,101.781586 12.0314509,101.868952 C11.879052,101.956318 11.7462492,102 11.6330386,102 L11.6069132,102 C11.1540706,101.982527 10.6794639,101.884241 10.1830788,101.705141 C9.68669364,101.526041 9.16419083,101.270499 8.61555464,100.938508 C8.06691846,100.606517 7.49216537,100.191535 6.89127812,99.6935484 C6.29039087,99.195562 5.6633875,98.6233231 5.01024919,97.9768145 C4.35711087,97.3215693 3.78453488,96.6925433 3.29250401,96.0897177 C2.80047315,95.4868921 2.38682509,94.910285 2.05154742,94.359879 C1.71626976,93.8094731 1.46154964,93.2831006 1.28737942,92.780746 C1.1132092,92.2783913 1.01741702,91.8044377 1,91.358871 C1,91.2365585 1.0435419,91.0989591 1.13062701,90.9460685 C1.21771212,90.793178 1.34833782,90.6206327 1.52250804,90.4284274 C1.69667825,90.2362222 1.8534291,90.0724133 1.99276527,89.936996 C2.13210144,89.8015786 2.25837296,89.6901886 2.3715836,89.6028226 C2.47608573,89.5241932 2.5762321,89.4499331 2.67202572,89.3800403 C2.76781934,89.3101475 2.85054895,89.2489922 2.92021704,89.1965726 C3.01601066,89.1266798 3.11615703,89.076445 3.22065916,89.0458669 C3.32516129,89.0152888 3.43837023,89 3.56028938,89 C3.69962556,89 3.82371997,89.0240253 3.93257636,89.0720766 C4.04143274,89.1201279 4.13504783,89.1965721 4.21342443,89.3014113 Z M3.37741157,89.8387097 C3.20324135,89.9610221 3.03342794,90.0942533 2.86796623,90.2384073 C2.70250453,90.3825612 2.54139949,90.5332653 2.3846463,90.6905242 C2.2278931,90.847783 2.10379869,90.9831984 2.01235932,91.0967742 C1.92091996,91.21035 1.86213839,91.3064512 1.83601286,91.3850806 C1.85342988,91.7782278 1.94486787,92.1975784 2.11032958,92.6431452 C2.27579128,93.0887119 2.51527174,93.5626655 2.82877813,94.0650202 C3.14228452,94.5673748 3.52980744,95.0959314 3.99135851,95.6507056 C4.45290959,96.2054799 4.98847497,96.7886394 5.59807073,97.4002016 C6.20766649,98.0117638 6.78895086,98.5490568 7.3419413,99.0120968 C7.89493174,99.4751367 8.42178874,99.8639097 8.92252811,100.178427 C9.42326749,100.492945 9.89787421,100.733198 10.3463625,100.899194 C10.7948508,101.065189 11.2150302,101.16129 11.6069132,101.1875 C11.6678727,101.16129 11.7549565,101.100135 11.8681672,101.004032 C11.9813778,100.90793 12.1163577,100.781251 12.2731109,100.623992 C12.4298641,100.466733 12.5779066,100.302924 12.7172427,100.13256 C12.8565789,99.9621967 12.9915588,99.7896514 13.1221865,99.6149194 C13.148312,99.5799729 13.1657288,99.5472112 13.1744373,99.5166331 C13.1831458,99.486055 13.1831458,99.4576614 13.1744373,99.4314516 C12.6693436,99.0732509 12.2056224,98.7543697 11.7832596,98.4747984 C11.3608968,98.1952271 10.9799052,97.9462377 10.6402733,97.7278226 C10.6054392,97.7278226 10.5662515,97.7343749 10.522709,97.7474798 C10.4791664,97.7605847 10.4312703,97.7802418 10.3790193,97.8064516 C10.3093512,97.8501346 10.1787255,97.9243946 9.98713824,98.0292339 C9.795551,98.1340731 9.54736217,98.2694884 9.24256429,98.4354839 L8.81149516,98.6975806 L8.38042603,98.4092742 C8.10175368,98.2170689 7.79478328,97.9702636 7.45950561,97.6688508 C7.12422794,97.367438 6.75629888,97.015795 6.35570738,96.6139113 C5.96382439,96.2120276 5.61984338,95.8429116 5.32375401,95.5065524 C5.02766464,95.1701932 4.78382999,94.8622326 4.59224276,94.5826613 L4.27873793,94.1764113 L4.53999195,93.7177419 C4.70545366,93.4119608 4.84043355,93.1651555 4.94493568,92.9773185 C5.04943781,92.7894816 5.12345904,92.6562504 5.1670016,92.577621 C5.19312713,92.5252014 5.21272098,92.4771508 5.22578375,92.4334677 C5.23884652,92.3897847 5.2453778,92.3504706 5.2453778,92.3155242 C4.94057992,91.835011 4.65102628,91.3850827 4.37670819,90.9657258 C4.1023901,90.5463689 3.8389616,90.1532276 3.58641478,89.7862903 L3.56028938,89.7862903 C3.52545534,89.7862903 3.49279891,89.7906586 3.46231913,89.7993952 C3.43183934,89.8081318 3.4035371,89.8212365 3.37741157,89.8387097 Z" id="phone---simple-line-icons"></path>
                </g>
            </g>
        </g>
    </g>
</svg>