<?xml version="1.0" encoding="UTF-8"?>
<svg width="20px" height="20px" viewBox="0 0 20 20" version="1.1" xmlns="http://www.w3.org/2000/svg" xmlns:xlink="http://www.w3.org/1999/xlink">
    <!-- Generator: Sketch 54.1 (76490) - https://sketchapp.com -->
    <title>instagram (1)</title>
    <desc>Created with Sketch.</desc>
    <g id="Symbols" stroke="none" stroke-width="1" fill="none" fill-rule="evenodd">
        <g id="#-FOOTER" transform="translate(-1030.000000, -255.000000)" fill="#FFFFFF" fill-rule="nonzero">
            <g id="instagram-(1)">
                <g transform="translate(1030.000000, 255.000000)">
                    <path d="M13.4298901,4.58450549 L6.57016484,4.58450549 C5.47538462,4.58450549 4.58450549,5.47532967 4.58450549,6.57016484 L4.58450549,13.4298352 C4.58450549,14.5248352 5.47538462,15.4157143 6.57016484,15.4157143 L13.4298901,15.4157143 C14.5248352,15.4157143 15.4157143,14.5248352 15.4157143,13.4298352 L15.4157143,6.57016484 C15.4157143,5.47538462 14.5248352,4.58450549 13.4298901,4.58450549 Z M9.99989011,13.5656044 C8.03401099,13.5656044 6.4343956,11.965989 6.4343956,9.99989011 C6.4343956,8.03401099 8.03401099,6.4343956 9.99989011,6.4343956 C11.965989,6.4343956 13.5656044,8.03401099 13.5656044,9.99989011 C13.5656044,11.965989 11.965989,13.5656044 9.99989011,13.5656044 Z M13.6803297,7.1717033 C13.2148901,7.1717033 12.8364286,6.79324176 12.8364286,6.32807692 C12.8364286,5.86285714 13.2148901,5.4843956 13.6803297,5.4843956 C14.1454945,5.4843956 14.523956,5.86285714 14.523956,6.32807692 C14.523956,6.7932967 14.1454945,7.1717033 13.6803297,7.1717033 Z" id="Shape"></path>
                    <path d="M9.99989011,7.94126374 C8.865,7.94126374 7.94082418,8.865 7.94082418,9.99989011 C7.94082418,11.1352198 8.865,12.0591758 9.99989011,12.0591758 C11.1352198,12.0591758 12.0587363,11.1352198 12.0587363,9.99989011 C12.0587363,8.865 11.1352198,7.94126374 9.99989011,7.94126374 Z" id="Shape"></path>
                    <path d="M0,5 L0,15 C3.38176876e-16,17.7614237 2.23857625,20 5,20 L15,20 C17.7614237,20 20,17.7614237 20,15 L20,5 C20,2.23857625 17.7614237,-5.07265313e-16 15,0 L5,0 C2.23857625,5.07265313e-16 -3.38176876e-16,2.23857625 0,5 Z M16.9221978,13.4298352 C16.9221978,15.3558242 15.3558242,16.9221978 13.4298901,16.9221978 L6.57016484,16.9221978 C4.6443956,16.9221978 3.0778022,15.3558242 3.0778022,13.4298352 L3.0778022,6.57016484 C3.0778022,4.6443956 4.6443956,3.0778022 6.57016484,3.0778022 L13.4298901,3.0778022 C15.3558242,3.0778022 16.9221978,4.6443956 16.9221978,6.57016484 L16.9221978,13.4298352 Z" id="Shape"></path>
                </g>
            </g>
        </g>
    </g>
</svg>