<?xml version="1.0" encoding="UTF-8"?>
<svg width="15px" height="15px" viewBox="0 0 15 15" version="1.1" xmlns="http://www.w3.org/2000/svg" xmlns:xlink="http://www.w3.org/1999/xlink">
    <!-- Generator: Sketch 54.1 (76490) - https://sketchapp.com -->
    <title>icon_time</title>
    <desc>Created with Sketch.</desc>
    <g id="03-04.About-Us-/-News" stroke="none" stroke-width="1" fill="none" fill-rule="evenodd">
        <g id="4.-News" transform="translate(-788.000000, -385.000000)" fill="#666666">
            <g id="Block-1" transform="translate(510.000000, 190.000000)">
                <g id="post_info" transform="translate(278.500000, 195.400000)">
                    <g id="icon_time">
                        <path d="M7.2,12.6 C4.21766235,12.6 1.8,10.1823376 1.8,7.2 C1.8,4.21766235 4.21766235,1.8 7.2,1.8 C10.1823376,1.8 12.6,4.21766235 12.6,7.2 C12.6,10.1823376 10.1823376,12.6 7.2,12.6 Z M8.1,6.3 L8.1,3.6 L6.3,3.6 L6.3,6.3 L6.3,8.1 L10.8,8.1 L10.8,6.3 L8.1,6.3 Z M7.2,14.4 L7.2,14.4 C3.2235498,14.4 0,11.1764502 0,7.2 C0,3.2235498 3.2235498,0 7.2,0 C11.1764502,0 14.4,3.2235498 14.4,7.2 C14.4,11.1764502 11.1764502,14.4 7.2,14.4 L7.2,14.4 Z" id="icon_time-copy"></path>
                    </g>
                </g>
            </g>
        </g>
    </g>
</svg>