<?xml version="1.0" encoding="UTF-8"?>
<svg width="405px" height="323px" viewBox="0 0 405 323" version="1.1" xmlns="http://www.w3.org/2000/svg" xmlns:xlink="http://www.w3.org/1999/xlink">
    <!-- Generator: Sketch 54.1 (76490) - https://sketchapp.com -->
    <title>_Element right</title>
    <desc>Created with Sketch.</desc>
    <g id="01.HomePage" stroke="none" stroke-width="1" fill="none" fill-rule="evenodd" opacity="0.129464286">
        <g id="1.1-Home---Demo-4" transform="translate(-1035.000000, -1259.000000)" fill="#004EA2">
            <g id="#-Technology" transform="translate(-585.000000, 767.000000)">
                <g id="_Element-right" transform="translate(1992.500000, 610.500000) rotate(-360.000000) translate(-1992.500000, -610.500000) translate(1620.000000, 406.000000)">
                    <polygon id="Fill-1" points="405.496933 246.395538 405.207004 246.338862 349.860248 235.268956 349.766648 234.992378 331.845842 182.143381 332.818359 181.821462 350.645567 234.389348 405.117971 245.280159 441.8522 203.886463 424.02271 151.318577 424.999793 150.989858 443.014199 204.1177 442.820152 204.337602"></polygon>
                    <polygon id="Fill-3" points="286.840091 184.174442 262.158215 180.056183 262.364778 179.196755 287.046653 183.316958"></polygon>
                    <polygon id="Fill-5" points="331.635458 182.515213 306.763383 177.710125 298.661258 154.631348 299.657076 154.308316 307.562842 176.835249 331.845842 181.530417"></polygon>
                    <polygon id="Fill-15" points="390.114293 121.123732 384.111562 102.725352 396.730989 87.9391481 415.448114 91.8318147 421.444219 110.232475 420.505602 110.560855 414.688386 92.7166154 397.097602 89.0611117 385.233485 102.960235 391.05291 120.795353"></polygon>
                    <polygon id="Fill-39" points="383.897342 153.478702 377.474645 134.958141 390.781168 120.294118 391.578093 120.973603 378.675945 135.187697 384.904731 153.145846"></polygon>
                    <polygon id="Fill-41" points="284.142755 230.63286 270.454361 223.254208 270.871511 222.336714 284.557809 229.717643"></polygon>
                    <polygon id="Fill-43" points="180.788234 280.409736 179.196755 256.49909 200.508134 243.077079 223.166329 253.724634 222.702633 254.609723 200.585028 244.218204 180.277935 257.006747 181.829803 280.350142"></polygon>
                    <polygon id="Fill-45" points="370.215031 212.381339 370.008114 211.374126 387.400912 207.971071 393.06527 191.640974 394.066937 191.965292 388.207419 208.864087"></polygon>
                    <polygon id="Fill-47" points="348.365675 237.269777 347.608519 236.588299 368.036045 212.844418 358.175099 182.845626 359.129384 182.515213 369.178499 213.076167 368.98585 213.301031"></polygon>
                    <polygon id="Fill-53" points="291.095055 289.535497 258.010142 282.811157 258.207543 281.812358 290.722684 288.421191 312.45702 263.525958 301.873616 231.790878 302.826975 231.462475 313.59432 263.754708 313.405892 263.976663"></polygon>
                    <polygon id="Fill-55" points="237.123519 291.194726 236.743539 290.238119 257.707345 282.129841 261.036809 260.434532 243.680501 246.735364 222.716695 254.843642 222.336714 253.889323 243.861223 245.565923 262.158215 259.999711 258.643395 282.871326"></polygon>
                    <polygon id="Fill-57" points="286.596027 186.663286 286.217039 185.706994 307.40803 177.537525 307.787018 178.489264"></polygon>
                    <polygon id="Fill-59" points="261.701461 262.158215 261.3286 261.182557 281.899587 252.952189 285.212134 230.63286 286.217039 230.790824 282.818097 253.704839"></polygon>
                    <polygon id="Fill-61" points="450.85965 287.046653 415.454229 280.049032 415.354821 279.769854 404.022312 246.722381 405.009457 246.395538 416.247181 279.161562 450.475889 285.929939 473.758161 259.989035 474.539554 260.667688"></polygon>
                    <polygon id="Fill-63" points="402.035647 311.935091 384.111562 302.954098 384.569972 302.012036 401.964236 310.730182 417.879608 300.041847 416.661019 280.474867 417.695322 280.409736 418.955375 300.576845"></polygon>
                    <polygon id="Fill-65" points="224.798957 222.336714 224.026637 221.650853 260.99288 179.544961 243.243234 126.63504 188.726136 115.617683 151.762178 157.723575 150.989858 157.037714 188.346831 114.486815 188.637023 114.546455 244.024694 125.740439 244.122947 126.022582 262.158215 179.781227 261.961708 180.001437"></polygon>
                    <polygon id="Fill-67" points="138.938989 224.825558 138.156562 224.12968 163.087737 195.49559 151.14994 159.619214 114.477734 152.142626 89.5511895 180.776716 88.7687627 180.080838 114.093465 150.989858 151.943942 158.707777 152.041166 158.995969 164.263692 195.739264 164.066928 195.96888"></polygon>
                    <polygon id="Fill-69" points="126.493232 288.705882 125.713144 288.010004 150.641239 259.375914 138.703809 223.497195 102.035041 216.02295 77.1069464 244.652354 76.3245436 243.956476 101.653099 214.870183 139.497785 222.581073 139.595007 222.869265 151.819473 259.619589 151.6204 259.844519"></polygon>
                    <polygon id="Fill-71" points="43.2634965 407.340771 4.97768763 373.623555 5.03734786 373.332296 15.1130438 323.325229 63.7567875 306.957404 102.042596 340.676913 101.361093 341.452074 63.5227358 308.127025 16.0079473 324.114151 6.10893748 373.242854 43.9472946 406.56561"></polygon>
                    <polygon id="Fill-73" points="120.056483 398.21501 94.5760649 375.126013 101.340007 340.599357 133.803351 329.356998 159.286004 352.443698 158.620112 353.220301 133.570959 330.5242 102.211476 341.38515 95.6732223 374.746902 120.720141 397.438407"></polygon>
                    <polygon id="Fill-75" points="65.4738577 306.957404 64.7099391 306.293999 89.435588 278.750507 126.10142 285.996926 125.90027 286.975392 89.8107669 279.839911"></polygon>
                    <polygon id="Fill-77" points="299.945208 155.137931 299.188944 154.448024 318.257128 132.05042 309.14605 104.038317 281.155293 98.200817 262.084865 120.605389 261.3286 119.915482 280.782771 97.0649087 309.915779 103.134701 310.007787 103.415774 319.401623 132.285035 319.208629 132.512682"></polygon>
                    <polygon id="Fill-79" points="269.513341 224.825558 263.63086 205.792334 245.565923 201.823868 245.76473 200.766734 264.390745 204.855602 270.454361 224.481207"></polygon>
                    <polygon id="Fill-81" points="243.707887 202.425963 225.081872 198.337095 219.018256 178.709083 219.959276 178.36714 225.837339 197.400364 243.906694 201.36883"></polygon>
                    <path d="M399.044625,245.979601 C399.044625,242.543831 401.829835,239.758621 405.270123,239.758621 C408.701375,239.758621 411.488844,242.543831 411.488844,245.979601 C411.488844,249.415371 408.701375,252.20284 405.270123,252.20284 C401.829835,252.20284 399.044625,249.415371 399.044625,245.979601" id="Fill-113"></path>
                    <path d="M342.630832,236.024226 C342.630832,232.589703 345.417795,229.803245 348.852941,229.803245 C352.290346,229.803245 355.075051,232.589703 355.075051,236.024226 C355.075051,239.461007 352.290346,242.247465 348.852941,242.247465 C345.417795,242.247465 342.630832,239.461007 342.630832,236.024226" id="Fill-115"></path>
                    <path d="M292.853955,153.894639 C292.853955,150.458869 295.634648,147.6714 299.074935,147.6714 C302.510706,147.6714 305.298174,150.458869 305.298174,153.894639 C305.298174,157.330409 302.510706,160.115619 299.074935,160.115619 C295.634648,160.115619 292.853955,157.330409 292.853955,153.894639" id="Fill-117"></path>
                    <path d="M262.98783,223.577746 C262.98783,220.140729 265.765012,217.359026 269.213329,217.359026 C272.643567,217.359026 275.432049,220.140729 275.432049,223.577746 C275.432049,227.014764 272.643567,229.803245 269.213329,229.803245 C265.765012,229.803245 262.98783,227.014764 262.98783,223.577746" id="Fill-119"></path>
                    <path d="M194.129817,243.491886 C194.129817,240.05674 196.91051,237.269777 200.350798,237.269777 C203.786568,237.269777 206.574037,240.05674 206.574037,243.491886 C206.574037,246.929291 203.786568,249.713996 200.350798,249.713996 C196.91051,249.713996 194.129817,246.929291 194.129817,243.491886" id="Fill-121"></path>
                    <path d="M132.738337,221.091163 C132.738337,217.655393 135.523547,214.870183 138.959317,214.870183 C142.397346,214.870183 145.182556,217.655393 145.182556,221.091163 C145.182556,224.526933 142.397346,227.314402 138.959317,227.314402 C135.523547,227.314402 132.738337,224.526933 132.738337,221.091163" id="Fill-123"></path>
                    <path d="M389.918864,193.299166 C389.918864,191.468364 391.40341,189.981744 393.238359,189.981744 C395.069161,189.981744 396.555781,191.468364 396.555781,193.299166 C396.555781,195.132042 395.069161,196.618661 393.238359,196.618661 C391.40341,196.618661 389.918864,195.132042 389.918864,193.299166" id="Fill-127"></path>
                    <path d="M365.860041,213.21199 C365.860041,211.379115 367.346196,209.892495 369.180572,209.892495 C371.006657,209.892495 372.496957,211.379115 372.496957,213.21199 C372.496957,215.042792 371.006657,216.529412 369.180572,216.529412 C367.346196,216.529412 365.860041,215.042792 365.860041,213.21199" id="Fill-129"></path>
                    <path d="M310.275862,264.648095 C310.275862,262.814292 311.762946,261.3286 313.598469,261.3286 C315.425695,261.3286 316.912779,262.814292 316.912779,264.648095 C316.912779,266.475682 315.425695,267.965517 313.598469,267.965517 C311.762946,267.965517 310.275862,266.475682 310.275862,264.648095" id="Fill-131"></path>
                    <path d="M355.904665,181.686634 C355.904665,179.856975 357.389212,178.36714 359.22416,178.36714 C361.054963,178.36714 362.541582,179.856975 362.541582,181.686634 C362.541582,183.514221 361.054963,185.004057 359.22416,185.004057 C357.389212,185.004057 355.904665,183.514221 355.904665,181.686634" id="Fill-133"></path>
                    <path d="M298.661258,230.62975 C298.661258,228.801021 300.145804,227.314402 301.984899,227.314402 C303.811555,227.314402 305.298174,228.801021 305.298174,230.62975 C305.298174,232.464699 303.811555,233.951318 301.984899,233.951318 C300.145804,233.951318 298.661258,232.464699 298.661258,230.62975" id="Fill-135"></path>
                    <path d="M258.010142,119.466577 C258.010142,117.631055 259.496297,116.146045 261.330673,116.146045 C263.160903,116.146045 264.647059,117.631055 264.647059,119.466577 C264.647059,121.295877 263.160903,122.782961 261.330673,122.782961 C259.496297,122.782961 258.010142,121.295877 258.010142,119.466577" id="Fill-137"></path>
                    <path d="M305.298174,103.70079 C305.298174,101.873203 306.78433,100.383367 308.616633,100.383367 C310.448936,100.383367 311.935091,101.873203 311.935091,103.70079 C311.935091,105.534593 310.448936,107.020284 308.616633,107.020284 C306.78433,107.020284 305.298174,105.534593 305.298174,103.70079" id="Fill-139"></path>
                    <path d="M327.697769,182.516249 C327.697769,180.682446 329.182315,179.196755 331.017264,179.196755 C332.843919,179.196755 334.334686,180.682446 334.334686,182.516249 C334.334686,184.343836 332.843919,185.833671 331.017264,185.833671 C329.182315,185.833671 327.697769,184.343836 327.697769,182.516249" id="Fill-141"></path>
                    <path d="M147.6714,157.624701 C147.6714,155.793327 149.15641,154.308316 150.991932,154.308316 C152.821232,154.308316 154.308316,155.793327 154.308316,157.624701 C154.308316,159.458149 152.821232,160.945233 150.991932,160.945233 C149.15641,160.945233 147.6714,159.458149 147.6714,157.624701" id="Fill-143"></path>
                    <path d="M384.941176,208.649086 C384.941176,207.502135 385.868822,206.574037 387.011162,206.574037 C388.159579,206.574037 389.089249,207.502135 389.089249,208.649086 C389.089249,209.791985 388.159579,210.72211 387.011162,210.72211 C385.868822,210.72211 384.941176,209.791985 384.941176,208.649086" id="Fill-147"></path>
                    <path d="M316.912779,130.663288 C316.912779,129.52353 317.838399,128.590264 318.982765,128.590264 C320.131181,128.590264 321.060852,129.52353 321.060852,130.663288 C321.060852,131.80912 320.131181,132.738337 318.982765,132.738337 C317.838399,132.738337 316.912779,131.80912 316.912779,130.663288" id="Fill-149"></path>
                    <path d="M305.298174,176.296143 C305.298174,175.149192 306.227845,174.219067 307.370186,174.219067 C308.518602,174.219067 309.446247,175.149192 309.446247,176.296143 C309.446247,177.443094 308.518602,178.36714 307.370186,178.36714 C306.227845,178.36714 305.298174,177.443094 305.298174,176.296143" id="Fill-151"></path>
                    <path d="M261.3286,180.444213 C261.3286,179.298381 262.25422,178.36714 263.398586,178.36714 C264.542952,178.36714 265.476673,179.298381 265.476673,180.444213 C265.476673,181.585996 264.542952,182.515213 263.398586,182.515213 C262.25422,182.515213 261.3286,181.585996 261.3286,180.444213" id="Fill-153"></path>
                    <path d="M277.920892,96.6470618 C277.920892,95.5061897 278.849656,94.5760649 279.992906,94.5760649 C281.140202,94.5760649 282.068966,95.5061897 282.068966,96.6470618 C282.068966,97.7940131 281.140202,98.7241379 279.992906,98.7241379 C278.849656,98.7241379 277.920892,97.7940131 277.920892,96.6470618" id="Fill-155"></path>
                    <path d="M386.600406,121.122696 C386.600406,119.291893 388.083342,117.805274 389.923012,117.805274 C391.750238,117.805274 393.237323,119.291893 393.237323,121.122696 C393.237323,122.955571 391.750238,124.442191 389.923012,124.442191 C388.083342,124.442191 386.600406,122.955571 386.600406,121.122696" id="Fill-163"></path>
                    <path d="M399.044625,310.691935 C399.044625,309.545457 399.965295,308.616633 401.116132,308.616633 C402.26444,308.616633 403.192698,309.545457 403.192698,310.691935 C403.192698,311.838413 402.26444,312.764706 401.116132,312.764706 C399.965295,312.764706 399.044625,311.838413 399.044625,310.691935" id="Fill-177"></path>
                    <path d="M379.133874,301.152175 C379.133874,299.316653 380.615199,297.831643 382.451295,297.831643 C384.283242,297.831643 385.770791,299.316653 385.770791,301.152175 C385.770791,302.981476 384.283242,304.46856 382.451295,304.46856 C380.615199,304.46856 379.133874,302.981476 379.133874,301.152175" id="Fill-181"></path>
                    <path d="M381.622718,153.064907 C381.622718,151.923124 382.552389,150.989858 383.694729,150.989858 C384.843146,150.989858 385.770791,151.923124 385.770791,153.064907 C385.770791,154.208714 384.843146,155.137931 383.694729,155.137931 C382.552389,155.137931 381.622718,154.208714 381.622718,153.064907" id="Fill-185"></path>
                    <path d="M381.622718,103.703127 C381.622718,102.781767 382.365073,102.042596 383.281947,102.042596 C384.201426,102.042596 384.941176,102.781767 384.941176,103.703127 C384.941176,104.619282 384.201426,105.361055 383.281947,105.361055 C382.365073,105.361055 381.622718,104.619282 381.622718,103.703127" id="Fill-225"></path>
                    <path d="M394.066937,87.935244 C394.066937,87.0216919 394.80871,86.2799189 395.724865,86.2799189 C396.643622,86.2799189 397.385396,87.0216919 397.385396,87.935244 C397.385396,88.8566042 396.643622,89.5983773 395.724865,89.5983773 C394.80871,89.5983773 394.066937,88.8566042 394.066937,87.935244" id="Fill-227"></path>
                    <path d="M375.815416,136.055494 C375.815416,135.141942 376.561224,134.397566 377.481142,134.397566 C378.393263,134.397566 379.133874,135.141942 379.133874,136.055494 C379.133874,136.974251 378.393263,137.716024 377.481142,137.716024 C376.561224,137.716024 375.815416,136.974251 375.815416,136.055494" id="Fill-229"></path>
                    <path d="M285.387424,187.078093 C285.387424,185.932315 286.313152,185.004057 287.458931,185.004057 C288.60471,185.004057 289.535497,185.932315 289.535497,187.078093 C289.535497,188.223872 288.60471,189.15213 287.458931,189.15213 C286.313152,189.15213 285.387424,188.223872 285.387424,187.078093" id="Fill-231"></path>
                    <path d="M243.077079,201.181542 C243.077079,200.035763 244.008691,199.107505 245.152378,199.107505 C246.291015,199.107505 247.225152,200.035763 247.225152,201.181542 C247.225152,202.32732 246.291015,203.255578 245.152378,203.255578 C244.008691,203.255578 243.077079,202.32732 243.077079,201.181542" id="Fill-233"></path>
                    <path d="M280.409736,254.276876 C280.409736,253.131098 281.334337,252.20284 282.47872,252.20284 C283.62563,252.20284 284.557809,253.131098 284.557809,254.276876 C284.557809,255.422655 283.62563,256.350913 282.47872,256.350913 C281.334337,256.350913 280.409736,255.422655 280.409736,254.276876" id="Fill-235"></path>
                    <path d="M289.535497,290.778653 C289.535497,289.632176 290.462624,288.705882 291.609533,288.705882 C292.75139,288.705882 293.68357,289.632176 293.68357,290.778653 C293.68357,291.925131 292.75139,292.853955 291.609533,292.853955 C290.462624,292.853955 289.535497,291.925131 289.535497,290.778653" id="Fill-237"></path>
                    <path d="M258.839757,260.912528 C258.839757,259.768581 259.768014,258.839757 260.913793,258.839757 C262.051984,258.839757 262.98783,259.768581 262.98783,260.912528 C262.98783,262.059005 262.051984,262.98783 260.913793,262.98783 C259.768014,262.98783 258.839757,262.059005 258.839757,260.912528" id="Fill-239"></path>
                    <path d="M179.196755,116.558494 C179.196755,111.293025 183.462421,107.020284 188.739681,107.020284 C194.00515,107.020284 198.27789,111.293025 198.27789,116.558494 C198.27789,121.828679 194.00515,126.10142 188.739681,126.10142 C183.462421,126.10142 179.196755,121.828679 179.196755,116.558494" id="Fill-241"></path>
                    <path d="M239.758621,246.396574 C239.758621,244.563699 241.244776,243.077079 243.077079,243.077079 C244.909382,243.077079 246.395538,244.563699 246.395538,246.396574 C246.395538,248.227376 244.909382,249.713996 243.077079,249.713996 C241.244776,249.713996 239.758621,248.227376 239.758621,246.396574" id="Fill-243"></path>
                    <path d="M282.89858,231.466379 C282.89858,230.545018 283.640935,229.803245 284.560414,229.803245 C285.474683,229.803245 286.217039,230.545018 286.217039,231.466379 C286.217039,232.382534 285.474683,233.121704 284.560414,233.121704 C283.640935,233.121704 282.89858,232.382534 282.89858,231.466379" id="Fill-245"></path>
                    <path d="M218.188641,179.195453 C218.188641,178.279298 218.930414,177.537525 219.851774,177.537525 C220.765326,177.537525 221.507099,178.279298 221.507099,179.195453 C221.507099,180.114211 220.765326,180.855984 219.851774,180.855984 C218.930414,180.855984 218.188641,180.114211 218.188641,179.195453" id="Fill-247"></path>
                    <path d="M223.995943,195.792951 C223.995943,194.871591 224.737716,194.129817 225.659076,194.129817 C226.572629,194.129817 227.314402,194.871591 227.314402,195.792951 C227.314402,196.709106 226.572629,197.448276 225.659076,197.448276 C224.737716,197.448276 223.995943,196.709106 223.995943,195.792951" id="Fill-249"></path>
                    <path d="M255.521298,282.899884 C255.521298,281.982289 256.261049,281.239351 257.177923,281.239351 C258.097401,281.239351 258.839757,281.982289 258.839757,282.899884 C258.839757,283.814871 258.097401,284.557809 257.177923,284.557809 C256.261049,284.557809 255.521298,283.814871 255.521298,282.899884" id="Fill-251"></path>
                    <path d="M236.440162,292.024341 C236.440162,291.565448 236.812888,291.194726 237.269777,291.194726 C237.72867,291.194726 238.099391,291.565448 238.099391,292.024341 C238.099391,292.483234 237.72867,292.853955 237.269777,292.853955 C236.812888,292.853955 236.440162,292.483234 236.440162,292.024341" id="Fill-253"></path>
                    <path d="M222.336714,222.340859 C222.336714,220.508556 223.82126,219.018256 225.656209,219.018256 C227.489085,219.018256 228.973631,220.508556 228.973631,222.340859 C228.973631,224.17109 227.489085,225.655172 225.656209,225.655172 C223.82126,225.655172 222.336714,224.17109 222.336714,222.340859" id="Fill-255"></path>
                    <path d="M262.98783,204.914807 C262.98783,203.999936 263.732187,203.255578 264.647059,203.255578 C265.56193,203.255578 266.306288,203.999936 266.306288,204.914807 C266.306288,205.829679 265.56193,206.574037 264.647059,206.574037 C263.732187,206.574037 262.98783,205.829679 262.98783,204.914807" id="Fill-257"></path>
                    <path d="M179.196755,282.485038 C179.196755,281.33856 180.117424,280.409736 181.268262,280.409736 C182.41404,280.409736 183.344828,281.33856 183.344828,282.485038 C183.344828,283.631516 182.41404,284.557809 181.268262,284.557809 C180.117424,284.557809 179.196755,283.631516 179.196755,282.485038" id="Fill-259"></path>
                    <path d="M42.3103448,406.922167 C42.3103448,405.780751 43.2405647,404.851927 44.3831175,404.851927 C45.5281979,404.851927 46.4584178,405.780751 46.4584178,406.922167 C46.4584178,408.073707 45.5281979,409 44.3831175,409 C43.2405647,409 42.3103448,408.073707 42.3103448,406.922167" id="Fill-261"></path>
                    <path d="M220.677485,256.352339 C220.677485,255.439264 221.419359,254.691684 222.343847,254.691684 C223.256923,254.691684 223.995943,255.439264 223.995943,256.352339 C223.995943,257.268268 223.256923,258.010142 222.343847,258.010142 C221.419359,258.010142 220.677485,257.268268 220.677485,256.352339" id="Fill-263"></path>
                    <path d="M178.36714,257.180527 C178.36714,256.262535 179.109014,255.521298 180.027796,255.521298 C180.938018,255.521298 181.685598,256.262535 181.685598,257.180527 C181.685598,258.092818 180.938018,258.839757 180.027796,258.839757 C179.109014,258.839757 178.36714,258.092818 178.36714,257.180527" id="Fill-265"></path>
                    <path d="M241.41785,126.929998 C241.41785,125.098267 242.900102,123.612576 244.737346,123.612576 C246.572515,123.612576 248.054767,125.098267 248.054767,126.929998 C248.054767,128.759657 246.572515,130.249493 244.737346,130.249493 C242.900102,130.249493 241.41785,128.759657 241.41785,126.929998" id="Fill-267"></path>
                    <path d="M162.604462,193.716274 C162.604462,192.573721 163.532155,191.640974 164.682291,191.640974 C165.822316,191.640974 166.752535,192.573721 166.752535,193.716274 C166.752535,194.856299 165.822316,195.789047 164.682291,195.789047 C163.532155,195.789047 162.604462,194.856299 162.604462,193.716274" id="Fill-269"></path>
                    <path d="M112.827586,152.230488 C112.827586,151.092991 113.754713,150.160243 114.901623,150.160243 C116.04348,150.160243 116.975659,151.092991 116.975659,152.230488 C116.975659,153.375569 116.04348,154.308316 114.901623,154.308316 C113.754713,154.308316 112.827586,153.375569 112.827586,152.230488" id="Fill-271"></path>
                    <path d="M82.9614604,279.996058 C82.9614604,276.555771 85.7454223,273.772819 89.1869595,273.772819 C92.6217177,273.772819 95.4056795,276.555771 95.4056795,279.996058 C95.4056795,283.431828 92.6217177,286.217039 89.1869595,286.217039 C85.7454223,286.217039 82.9614604,283.431828 82.9614604,279.996058" id="Fill-273"></path>
                    <path d="M0,372.911765 C0,369.476618 2.78244608,366.689655 6.22210953,366.689655 C9.65725603,366.689655 12.4442191,369.476618 12.4442191,372.911765 C12.4442191,376.344653 9.65725603,379.133874 6.22210953,379.133874 C2.78244608,379.133874 0,376.344653 0,372.911765" id="Fill-275"></path>
                    <path d="M146.841785,258.010142 C146.841785,256.179912 148.326795,254.691684 150.162317,254.691684 C151.993692,254.691684 153.478702,256.179912 153.478702,258.010142 C153.478702,259.842445 151.993692,261.3286 150.162317,261.3286 C148.326795,261.3286 146.841785,259.842445 146.841785,258.010142" id="Fill-277"></path>
                    <path d="M117.805274,398.21501 C117.805274,396.380634 119.28982,394.896552 121.126842,394.896552 C122.957644,394.896552 124.442191,396.380634 124.442191,398.21501 C124.442191,400.043168 122.957644,401.533469 121.126842,401.533469 C119.28982,401.533469 117.805274,400.043168 117.805274,398.21501" id="Fill-279"></path>
                    <path d="M125.271805,285.802231 C125.271805,284.656453 126.200063,283.728195 127.348371,283.728195 C128.49162,283.728195 129.419878,284.656453 129.419878,285.802231 C129.419878,286.94801 128.49162,287.876268 127.348371,287.876268 C126.200063,287.876268 125.271805,286.94801 125.271805,285.802231" id="Fill-281"></path>
                    <path d="M159.286004,352.997223 C159.286004,351.857198 160.211168,350.926978 161.361304,350.926978 C162.501329,350.926978 163.434077,351.857198 163.434077,352.997223 C163.434077,354.142303 162.501329,355.075051 161.361304,355.075051 C160.211168,355.075051 159.286004,354.142303 159.286004,352.997223" id="Fill-283"></path>
                    <path d="M93.7464503,375.399345 C93.7464503,374.25932 94.6741424,373.326572 95.8217507,373.326572 C96.9643034,373.326572 97.8945233,374.25932 97.8945233,375.399345 C97.8945233,376.541897 96.9643034,377.474645 95.8217507,377.474645 C94.6741424,377.474645 93.7464503,376.541897 93.7464503,375.399345" id="Fill-285"></path>
                    <path d="M100.383367,215.28499 C100.383367,214.139211 101.311059,213.210953 102.458668,213.210953 C103.60122,213.210953 104.53144,214.139211 104.53144,215.28499 C104.53144,216.430769 103.60122,217.359026 102.458668,217.359026 C101.311059,217.359026 100.383367,216.430769 100.383367,215.28499" id="Fill-287"></path>
                    <path d="M73.8356998,243.075005 C73.8356998,241.243631 75.3207099,239.758621 77.1562323,239.758621 C78.9876065,239.758621 80.4726166,241.243631 80.4726166,243.075005 C80.4726166,244.910527 78.9876065,246.395538 77.1562323,246.395538 C75.3207099,246.395538 73.8356998,244.910527 73.8356998,243.075005" id="Fill-289"></path>
                    <path d="M86.2799189,178.368177 C86.2799189,176.539448 87.762855,175.048682 89.5983773,175.048682 C91.4318256,175.048682 92.9168357,176.539448 92.9168357,178.368177 C92.9168357,180.198979 91.4318256,181.685598 89.5983773,181.685598 C87.762855,181.685598 86.2799189,180.198979 86.2799189,178.368177" id="Fill-291"></path>
                    <path d="M98.7241379,340.970566 C98.7241379,339.139764 100.207074,337.653144 102.042596,337.653144 C103.876045,337.653144 105.361055,339.139764 105.361055,340.970566 C105.361055,342.803441 103.876045,344.290061 102.042596,344.290061 C100.207074,344.290061 98.7241379,342.803441 98.7241379,340.970566" id="Fill-293"></path>
                    <path d="M14.1034483,323.133623 C14.1034483,321.987145 15.0331017,321.060852 16.180011,321.060852 C17.3193417,321.060852 18.2515213,321.987145 18.2515213,323.133623 C18.2515213,324.280101 17.3193417,325.208925 16.180011,325.208925 C15.0331017,325.208925 14.1034483,324.280101 14.1034483,323.133623" id="Fill-295"></path>
                    <path d="M63.8803245,308.203091 C63.8803245,307.056613 64.806053,306.127789 65.9543611,306.127789 C67.0976104,306.127789 68.0283976,307.056613 68.0283976,308.203091 C68.0283976,309.347038 67.0976104,310.275862 65.9543611,310.275862 C64.806053,310.275862 63.8803245,309.347038 63.8803245,308.203091" id="Fill-297"></path>
                    <path d="M131.908722,329.359072 C131.908722,327.527698 133.393732,326.03854 135.227181,326.03854 C137.058555,326.03854 138.545639,327.527698 138.545639,329.359072 C138.545639,331.19252 137.058555,332.675456 135.227181,332.675456 C133.393732,332.675456 131.908722,331.19252 131.908722,329.359072" id="Fill-299"></path>
                </g>
            </g>
        </g>
    </g>
</svg>