<?xml version="1.0" encoding="UTF-8"?>
<svg width="336px" height="252px" viewBox="0 0 336 252" version="1.1" xmlns="http://www.w3.org/2000/svg" xmlns:xlink="http://www.w3.org/1999/xlink">
    <!-- Generator: Sketch 51.3 (57544) - http://www.bohemiancoding.com/sketch -->
    <title>Group 7</title>
    <desc>Created with Sketch.</desc>
    <defs></defs>
    <g id="5.-BLOG-LIST" stroke="none" stroke-width="1" fill="none" fill-rule="evenodd">
        <g id="Desktop" transform="translate(-101.000000, -759.000000)" fill-rule="nonzero">
            <g id="Group" transform="translate(101.000000, 759.000000)">
                <g id="Group-7">
                    <rect id="Rectangle-14" fill="#D8D8D8" x="0" y="0" width="336" height="252"></rect>
                    <g id="Group-Copy-2" transform="translate(118.000000, 84.000000)" fill="#F6F6F6">
                        <path d="M99.9283871,3.65591398 C99.9283871,1.64516129 98.2832258,0 96.2724731,0 L3.65591398,0 C1.64516129,0 -2.84217094e-14,1.64516129 -2.84217094e-14,3.65591398 L-2.84217094e-14,80.4301075 C-2.84217094e-14,82.4408602 1.64516129,84.0860215 3.65591398,84.0860215 L96.2724731,84.0860215 C98.2832258,84.0860215 99.9283871,82.4408602 99.9283871,80.4301075 L99.9283871,3.65591398 Z M92.6165591,7.31182796 L92.6165591,54.1075269 L71.1686022,39.0574194 C69.7062366,38.0825806 67.8174194,38.2043011 66.5987097,39.4230108 L55.448172,50.1470968 L32.2939785,27.7849462 C31.5627957,27.0537634 30.5268817,26.688172 29.4911828,26.7490323 C28.4552688,26.8098925 27.4804301,27.3582796 26.8711828,28.1505376 L7.37290323,53.1935484 L7.37290323,7.31182796 L92.6165591,7.31182796 Z M7.31182796,76.7741935 L7.31182796,65.0752688 L30.1004301,35.8888172 L52.8888172,57.8853763 C54.2903226,59.2258065 56.5447312,59.2258065 57.9462366,57.8853763 L69.4015054,46.7956989 L92.6165591,63.0645161 L92.6165591,76.7741935 L7.31182796,76.7741935 Z" id="Shape"></path>
                        <path d="M58.9210753,35.0967742 C62.8206452,35.0967742 65.9892473,31.9283871 65.9892473,28.0286022 C65.9892473,24.1288172 62.8208602,20.9606452 58.9210753,20.9606452 C55.0212903,20.9606452 51.8529032,24.1290323 51.8529032,28.0288172 C51.8529032,31.9286022 55.0215054,35.0967742 58.9210753,35.0967742 Z" id="Path"></path>
                    </g>
                </g>
            </g>
        </g>
    </g>
</svg>