<?xml version="1.0" encoding="UTF-8"?>
<svg width="93px" height="15px" viewBox="0 0 93 15" version="1.1" xmlns="http://www.w3.org/2000/svg" xmlns:xlink="http://www.w3.org/1999/xlink">
    <!-- Generator: Sketch 54.1 (76490) - https://sketchapp.com -->
    <title>star</title>
    <desc>Created with Sketch.</desc>
    <g id="02.-Product" stroke="none" stroke-width="1" fill="none" fill-rule="evenodd">
        <g id="2.Product---Category" transform="translate(-170.000000, -1520.000000)" stroke-width="0.891">
            <g id="#-FILTER" transform="translate(146.000000, 945.000000)">
                <g id="Rated-2" transform="translate(24.000000, 521.000000)">
                    <g id="Less-4" transform="translate(0.000000, 50.000000)">
                        <g id="star" transform="translate(0.000000, 4.000000)">
                            <polygon id="" stroke="#FFE243" fill="#FFE243" points="6.70664348 11.4200625 2.54723478 13.9999125 3.65963478 9.154425 0 5.8965375 4.8204 5.4665625 6.70664348 0.91875 8.59288696 5.4665625 13.413287 5.8965375 9.76977391 9.154425 10.8660522 13.9999125"></polygon>
                            <polygon id="-copy" stroke="#E4E4E4" fill="#E4E4E4" points="26.5979478 11.4200625 22.4385391 13.9999125 23.5509391 9.154425 19.8913043 5.8965375 24.7117043 5.4665625 26.5979478 0.91875 28.4841913 5.4665625 33.3045913 5.8965375 29.6610783 9.154425 30.7573565 13.9999125"></polygon>
                            <polygon id="-copy-2" stroke="#E4E4E4" fill="#E4E4E4" points="46.4892522 11.4200625 42.3298435 13.9999125 43.4422435 9.154425 39.7826087 5.8965375 44.6030087 5.4665625 46.4892522 0.91875 48.3754957 5.4665625 53.1958957 5.8965375 49.5523826 9.154425 50.6486609 13.9999125"></polygon>
                            <polygon id="-copy-3" stroke="#E4E4E4" fill="#E4E4E4" points="66.3805565 10.5013125 62.2211478 13.0811625 63.3335478 8.235675 59.673913 4.9777875 64.494313 4.5478125 66.3805565 0 68.2668 4.5478125 73.0872 4.9777875 69.443687 8.235675 70.5399652 13.0811625"></polygon>
                            <polygon id="-copy-4" stroke="#E4E4E4" fill="#E4E4E4" points="86.2718609 11.4200625 82.1124522 13.9999125 83.2248522 9.154425 79.5652174 5.8965375 84.3856174 5.4665625 86.2718609 0.91875 88.1581043 5.4665625 92.9785043 5.8965375 89.3349913 9.154425 90.4312696 13.9999125"></polygon>
                        </g>
                    </g>
                </g>
            </g>
        </g>
    </g>
</svg>