<?xml version="1.0" encoding="UTF-8"?>
<svg width="244px" height="149px" viewBox="0 0 244 149" version="1.1" xmlns="http://www.w3.org/2000/svg" xmlns:xlink="http://www.w3.org/1999/xlink">
    <!-- Generator: Sketch 54.1 (76490) - https://sketchapp.com -->
    <title>Group 2</title>
    <desc>Created with Sketch.</desc>
    <g id="Symbols" stroke="none" stroke-width="1" fill="none" fill-rule="evenodd">
        <g id="Artboard" transform="translate(-561.000000, -216.000000)" fill="#FFFFFF">
            <g id="Group-2" transform="translate(556.000000, 214.000000)">
                <path d="M134.872438,51.7240736 L134.872438,38.6343606 L82.8252454,71.2028132 L30.7780532,38.6343606 L30.7780532,51.7240736 L82.8252454,83.9808663 L134.872438,51.7240736 Z M134.872438,25.5446476 C138.4046,25.5446476 141.417282,26.8432172 143.910573,29.4403955 C146.403864,32.0375737 147.650491,35.1021981 147.650491,38.6343606 L147.650491,116.549319 C147.650491,120.081481 146.403864,123.146106 143.910573,125.743284 C141.417282,128.340462 138.4046,129.639032 134.872438,129.639032 L30.7780532,129.639032 C27.2458907,129.639032 24.2332091,128.340462 21.739918,125.743284 C19.2466269,123.146106 18,120.081481 18,116.549319 L18,38.6343606 C18,35.1021981 19.2466269,32.0375737 21.739918,29.4403955 C24.2332091,26.8432172 27.2458907,25.5446476 30.7780532,25.5446476 L134.872438,25.5446476 Z" id="email---material-copy" opacity="0.132700893" transform="translate(82.825245, 77.591840) rotate(-330.000000) translate(-82.825245, -77.591840) "></path>
                <path d="M239.31181,19.125208 L239.31181,13.562604 L217.193837,27.4028925 L195.075864,13.562604 L195.075864,19.125208 L217.193837,32.8330535 L239.31181,19.125208 Z M239.31181,8 C240.812838,8 242.093107,8.55184011 243.152656,9.6555369 C244.212205,10.7592337 244.741971,12.0615764 244.741971,13.562604 L244.741971,46.673342 C244.741971,48.1743696 244.212205,49.4767123 243.152656,50.5804091 C242.093107,51.6841058 240.812838,52.235946 239.31181,52.235946 L195.075864,52.235946 C193.574836,52.235946 192.294567,51.6841058 191.235018,50.5804091 C190.17547,49.4767123 189.645703,48.1743696 189.645703,46.673342 L189.645703,13.562604 C189.645703,12.0615764 190.17547,10.7592337 191.235018,9.6555369 C192.294567,8.55184011 193.574836,8 195.075864,8 L239.31181,8 Z" id="email---material-copy-2" opacity="0.122935268" transform="translate(217.193837, 30.117973) rotate(-18.000000) translate(-217.193837, -30.117973) "></path>
            </g>
        </g>
    </g>
</svg>